<?xml version="1.0" standalone="no"?>
<!DOCTYPE svg PUBLIC "-//W3C//DTD SVG 20010904//EN"
 "http://www.w3.org/TR/2001/REC-SVG-20010904/DTD/svg10.dtd">
<svg version="1.0" xmlns="http://www.w3.org/2000/svg"
 width="494.000000pt" height="494.000000pt" viewBox="0 0 494.000000 494.000000"
 preserveAspectRatio="xMidYMid meet">
<metadata>
Created by potrace 1.11, written by Peter Selinger 2001-2013
</metadata>
<g transform="translate(0.000000,494.000000) scale(0.100000,-0.100000)"
fill="#000000" stroke="none">
<path d="M2607 4224 c-1 -1 -33 -4 -72 -8 -108 -10 -302 -52 -401 -87 -183
-64 -424 -198 -540 -300 -104 -92 -143 -131 -211 -209 -234 -266 -390 -628
-420 -975 -36 -416 58 -795 281 -1135 262 -398 677 -673 1146 -760 148 -28
404 -35 543 -15 283 41 518 130 742 280 107 72 246 185 254 207 4 11 -507 528
-522 528 -5 0 -30 -18 -55 -41 -50 -43 -203 -142 -210 -134 -2 2 -5 226 -6
497 l-1 493 -165 0 -165 0 -1 -538 c-1 -296 -4 -540 -7 -543 -3 -3 -19 -8 -36
-10 l-30 -5 0 378 c0 208 0 405 0 439 l-1 60 -165 0 -165 -1 0 -412 0 -411
-35 11 -35 10 0 657 0 657 -165 0 c-144 0 -165 -2 -166 -16 0 -9 -1 -254 -1
-546 l-1 -529 -40 44 c-195 220 -284 530 -237 826 51 321 264 602 565 745 349
165 764 112 1062 -138 28 -24 55 -43 60 -43 4 0 125 117 268 260 l259 259 -24
27 c-87 92 -292 233 -455 310 -98 46 -297 116 -365 128 -14 2 -43 7 -65 11
-22 4 -49 9 -60 11 -65 12 -348 26 -358 18z m-457 -1469 c-52 -30 -97 -55
-100 -55 -5 0 -5 98 -1 108 1 1 45 2 99 2 l97 0 -95 -55z m131 -21 c-4 -17
-35 -41 -106 -82 -132 -77 -132 -77 -130 -41 2 38 6 42 127 110 104 58 122 60
109 13z m2 -118 c-4 -17 -33 -39 -113 -84 -59 -34 -113 -62 -119 -62 -12 0 -6
63 7 68 4 1 54 29 112 62 105 60 121 62 113 16z m-1 -107 c-3 -22 -47 -69 -64
-69 -4 0 -32 -16 -62 -35 -30 -19 -59 -35 -64 -35 -5 0 -15 -7 -22 -15 -10
-12 -15 -13 -21 -4 -8 14 -2 62 9 67 4 2 52 29 107 62 55 32 105 57 110 56 6
-2 9 -14 7 -27z m745 5 c-3 -4 -45 -28 -92 -54 l-85 -48 0 54 0 54 92 0 c50 0
89 -3 85 -6z m43 -94 c-12 -9 -38 -25 -58 -36 -20 -10 -61 -34 -91 -51 -30
-18 -59 -33 -64 -33 -5 0 -7 15 -5 33 3 29 12 37 118 98 l115 67 3 -31 c3 -22
-2 -35 -18 -47z m-787 -45 c-3 -13 -25 -31 -61 -50 -31 -17 -81 -45 -110 -63
-29 -18 -56 -31 -61 -28 -14 9 -3 59 15 70 10 6 45 26 79 45 33 19 76 44 95
56 30 19 36 20 41 7 3 -9 4 -25 2 -37z m807 -29 c0 -33 -4 -36 -115 -100 -63
-36 -117 -66 -120 -66 -3 0 -5 15 -5 33 1 30 6 35 118 99 64 37 118 68 120 68
1 0 2 -15 2 -34z m-812 -99 c-5 -10 -17 -21 -26 -25 -9 -3 -53 -27 -97 -53
-98 -58 -107 -60 -110 -32 -3 34 6 42 122 108 101 57 108 59 114 40 3 -11 2
-28 -3 -38z m332 47 c0 -8 -160 -90 -162 -82 -2 5 -2 27 0 48 l4 38 79 -1 c43
0 79 -1 79 -3z m75 -46 c0 -17 -7 -35 -15 -40 -8 -4 -49 -28 -91 -52 -42 -24
-90 -51 -106 -59 l-28 -15 3 36 c4 35 9 40 111 99 58 33 111 61 116 62 6 1 10
-13 10 -31z m405 -22 c0 -32 -5 -37 -62 -69 -35 -18 -89 -49 -120 -66 l-58
-33 0 34 c0 32 4 36 118 100 64 38 118 68 120 68 1 0 2 -15 2 -34z m-808 -89
c-2 -10 -21 -27 -41 -38 -20 -11 -49 -28 -66 -38 -52 -31 -125 -71 -126 -68
-1 1 -2 15 -3 30 -3 30 8 40 114 99 25 14 61 35 80 46 32 20 35 20 41 5 3 -10
4 -26 1 -36z m403 -7 c1 -29 -7 -35 -112 -95 -62 -36 -115 -65 -118 -65 -3 0
-5 15 -5 33 0 30 6 35 108 94 59 34 112 62 117 62 6 1 10 -13 10 -29z m405
-23 c0 -26 -6 -37 -27 -48 -15 -8 -67 -38 -116 -66 -48 -29 -89 -53 -91 -53
-2 0 -4 15 -4 34 0 31 5 36 77 78 42 25 92 54 111 66 47 28 50 27 50 -11z
m-809 -49 c4 -48 -5 -60 -70 -94 -20 -10 -58 -33 -86 -50 -76 -47 -82 -48 -81
-11 2 34 -3 31 141 117 89 53 95 55 96 38z m404 -43 c-1 -38 6 -32 -130 -110
-22 -12 -56 -32 -75 -43 l-35 -21 3 38 c4 37 7 39 120 104 65 37 117 67 118
67 0 0 0 -16 -1 -35z m405 -27 c-1 -31 -6 -36 -110 -95 -60 -35 -114 -63 -120
-63 -5 0 -10 12 -10 28 0 22 10 33 60 65 33 20 62 37 65 37 2 0 26 14 52 30
26 17 51 30 55 30 4 0 8 -15 8 -32z m-809 -51 c-1 -4 -1 -17 -1 -29 0 -17 -14
-31 -52 -53 -29 -16 -77 -44 -108 -62 -69 -40 -76 -40 -75 -3 0 26 10 35 110
94 103 60 128 71 126 53z m405 -42 c0 -29 -6 -37 -31 -50 -16 -9 -37 -20 -45
-25 -83 -51 -153 -89 -160 -85 -4 2 -5 18 -1 35 5 26 22 40 116 94 61 36 112
65 115 65 3 1 6 -15 6 -34z m401 -49 c-5 -12 -215 -136 -231 -136 -4 0 -6 14
-4 31 3 29 13 38 118 99 112 65 115 66 118 43 2 -14 1 -30 -1 -37z m-805 -52
c-2 -16 -5 -29 -5 -30 -1 0 -40 -22 -85 -48 l-84 -48 -24 23 -23 22 44 24 c24
13 70 39 102 58 32 19 63 33 68 31 6 -1 8 -16 7 -32z m403 -16 c-3 -29 -36
-67 -58 -68 -5 0 -21 -8 -35 -18 -15 -10 -53 -33 -85 -51 l-58 -33 3 37 c3 35
7 39 113 100 61 35 113 64 116 65 4 0 5 -14 4 -32z m405 -22 c0 -33 -4 -37
-113 -100 -63 -36 -117 -66 -121 -66 -4 0 -6 14 -4 32 3 28 12 37 73 73 87 52
159 93 163 94 1 1 2 -14 2 -33z m-809 -85 c-4 -15 -21 -34 -42 -45 -34 -18
-36 -18 -62 -1 l-27 18 62 36 c65 39 80 37 69 -8z m404 -19 c-2 -14 -10 -29
-17 -34 -7 -4 -31 -19 -53 -32 -44 -28 -152 -86 -159 -86 -10 0 -12 51 -2 59
31 25 220 129 228 125 4 -3 6 -17 3 -32z m403 -18 c-3 -31 -9 -40 -48 -61
-114 -65 -173 -93 -181 -87 -18 11 -9 51 14 62 36 18 121 68 163 95 52 34 56
33 52 -9z m-808 -49 c0 -9 -6 -12 -16 -8 -13 5 -13 7 -2 14 17 11 18 11 18 -6z
m405 -46 c-1 -16 -11 -36 -21 -44 -19 -15 -105 -21 -117 -8 -7 7 109 81 129
82 7 1 10 -12 9 -30z"/>
</g>
</svg>
