<svg id="Layer_1" data-name="Layer 1" xmlns="http://www.w3.org/2000/svg" viewBox="0 0 600 400"><defs><style>.cls-1{fill-rule:evenodd;}.cls-2{fill:none;stroke:#fff;stroke-miterlimit:10;}</style></defs><title>final</title><path d="M105.81,216.27h4.51v-17.4h-4.51v17.4Zm0.62-16.78h3.27v16.17h-3.27V199.49Z"/><path d="M111.31,195.83v15.45h4.52V195.83h-4.52Zm3.9,14.83h-3.28V196.45h3.28v14.21Z"/><path d="M100.33,216.4h4.5V191.87h-4.5V216.4ZM101,192.49h3.26v23.3H101v-23.3Z"/><path d="M111.68,198.49l-0.16-.28,3.93-2.26,0.16,0.28-3.93,2.26h0Zm0,3.22-0.16-.28,3.93-2.26,0.16,0.28-3.93,2.26h0Zm0,3.22-0.16-.28,3.93-2.26,0.16,0.28-3.93,2.26h0Zm0,3.22-0.16-.28,3.93-2.26,0.16,0.28-3.93,2.26h0Zm0,3.22-0.16-.28,3.93-2.26,0.16,0.28-3.93,2.26h0Zm0-11.28-0.16-.28,3.93-2.26,0.16,0.28-3.93,2.26h0Zm0,3.22-0.16-.28,3.93-2.26,0.16,0.28-3.93,2.26h0Zm0,3.22-0.16-.28,3.93-2.26,0.16,0.28-3.93,2.26h0Zm0,3.22-0.16-.28,3.93-2.26,0.16,0.28-3.93,2.26h0Zm0,3.22-0.16-.28,3.93-2.26,0.16,0.28L111.68,213h0Zm0-14.43-0.16-.28,3.93-2.26,0.16,0.28-3.93,2.26h0Zm0,3.22-0.16-.28,3.93-2.26,0.16,0.28-3.93,2.26h0Zm0,3.22-0.16-.28,3.93-2.26,0.16,0.28L111.68,205h0Zm0,3.22-0.16-.28,3.93-2.26,0.16,0.28-3.93,2.26h0Zm0,3.22-0.16-.28,3.93-2.26,0.16,0.28-3.93,2.26h0Zm0-11.28-0.16-.28,3.93-2.26,0.16,0.28-3.93,2.26h0Zm0,3.22-0.16-.28,3.93-2.26,0.16,0.28-3.93,2.26h0Zm0,3.22-0.16-.28,3.93-2.26,0.16,0.28-3.93,2.26h0Zm0,3.22-0.16-.28,3.93-2.26,0.16,0.28-3.93,2.26h0Zm0,3.22-0.16-.28,3.93-2.26,0.16,0.28-3.93,2.26h0Zm0-14.43-0.16-.28,3.93-2.26,0.16,0.28-3.93,2.26h0Zm0,3.22-0.16-.28,3.93-2.26,0.16,0.28-3.93,2.26h0Zm0,3.22-0.16-.28,3.93-2.26,0.16,0.28-3.93,2.26h0Zm0,3.22-0.16-.28,3.93-2.26,0.16,0.28-3.93,2.26h0Zm0,3.22-0.16-.28,3.93-2.26,0.16,0.28-3.93,2.26h0Zm0-11.28-0.16-.28,3.93-2.26,0.16,0.28-3.93,2.26h0Zm0,3.22-0.16-.28,3.93-2.26,0.16,0.28-3.93,2.26h0Zm0,3.22-0.16-.28,3.93-2.26,0.16,0.28-3.93,2.26h0Zm0,3.22-0.16-.28,3.93-2.26,0.16,0.28-3.93,2.26h0Zm0,3.22-0.16-.28,3.93-2.26,0.16,0.28-3.93,2.26h0Zm0-14.43-0.16-.28,3.93-2.26,0.16,0.28-3.93,2.26h0Zm0,3.22-0.16-.28,3.93-2.26,0.16,0.28-3.93,2.26h0Zm0,3.22-0.16-.28,3.93-2.26,0.16,0.28-3.93,2.26h0Zm0,3.22-0.16-.28,3.93-2.26,0.16,0.28-3.93,2.26h0Zm0,3.22-0.16-.28,3.93-2.26,0.16,0.28-3.93,2.26h0Zm0-11.28-0.16-.28,3.93-2.26,0.16,0.28-3.93,2.26h0Zm0,3.22-0.16-.28,3.93-2.26,0.16,0.28-3.93,2.26h0Zm0,3.22-0.16-.28,3.93-2.26,0.16,0.28-3.93,2.26h0Zm0,3.22-0.16-.28,3.93-2.26,0.16,0.28L111.68,210h0Zm0,3.22-0.16-.28,3.93-2.26,0.16,0.28-3.93,2.26h0Zm-5.51-11.84-0.16-.28,3.93-2.26,0.16,0.28-3.93,2.26h0Zm0,3.22-0.16-.28,3.93-2.26,0.16,0.28-3.93,2.26h0Zm0,3.22-0.16-.28,3.93-2.26,0.16,0.28-3.93,2.26h0Zm0,3.22-0.16-.28,3.93-2.26,0.16,0.28-3.93,2.26h0Zm0,3.22L106,214l3.93-2.26L110.1,212l-3.93,2.26h0Zm0-11.28-0.16-.28,3.93-2.26,0.16,0.28L106.17,203h0Zm0,3.22-0.16-.28,3.93-2.26L110.1,204l-3.93,2.26h0Zm0,3.22-0.16-.28,3.93-2.26,0.16,0.28-3.93,2.26h0Zm0,3.22L106,212.4l3.93-2.26,0.16,0.28-3.93,2.26h0Zm0,3.22-0.16-.28,3.93-2.26,0.16,0.28-3.93,2.26h0Zm0-14.43-0.16-.28,3.93-2.26,0.16,0.28-3.93,2.26h0Zm0,3.22-0.16-.28,3.93-2.26,0.16,0.28-3.93,2.26h0Zm0,3.22-0.16-.28,3.93-2.26,0.16,0.28-3.93,2.26h0Zm0,3.22-0.16-.28,3.93-2.26,0.16,0.28-3.93,2.26h0Zm0,3.22-0.16-.28,3.93-2.26,0.16,0.28-3.93,2.26h0Zm0-11.28L106,202.8l3.93-2.26,0.16,0.28-3.93,2.26h0Zm0,3.22L106,206l3.93-2.26,0.16,0.28-3.93,2.26h0Zm0,3.22-0.16-.28,3.93-2.26,0.16,0.28-3.93,2.26h0Zm0,3.22-0.16-.28,3.93-2.26,0.16,0.28-3.93,2.26h0Zm0,3.22L106,215.7l3.93-2.26,0.16,0.28L106.17,216h0Zm0-14.43-0.16-.28,3.93-2.26,0.16,0.28-3.93,2.26h0Zm0,3.22-0.16-.28,3.93-2.26,0.16,0.28-3.93,2.26h0Zm0,3.22-0.16-.28,3.93-2.26,0.16,0.28L106.17,208h0Zm0,3.22-0.16-.28,3.93-2.26L110.1,209l-3.93,2.26h0Zm0,3.22-0.16-.28,3.93-2.26,0.16,0.28-3.93,2.26h0Zm0-11.28-0.16-.28,3.93-2.26,0.16,0.28-3.93,2.26h0Zm0,3.22L106,206.1l3.93-2.26,0.16,0.28-3.93,2.26h0Zm0,3.22-0.16-.28,3.93-2.26,0.16,0.28-3.93,2.26h0Zm0,3.22-0.16-.28,3.93-2.26,0.16,0.28-3.93,2.26h0Zm0,3.22-0.16-.28,3.93-2.26,0.16,0.28-3.93,2.26h0Zm0-14.43-0.16-.28,3.93-2.26,0.16,0.28-3.93,2.26h0Zm0,3.22-0.16-.28,3.93-2.26,0.16,0.28-3.93,2.26h0Zm0,3.22-0.16-.28,3.93-2.26,0.16,0.28-3.93,2.26h0Zm0,3.22L106,211l3.93-2.26L110.1,209l-3.93,2.26h0Zm0,3.22-0.16-.28,3.93-2.26,0.16,0.28-3.93,2.26h0Zm0-11.28L106,203l3.93-2.26L110.1,201l-3.93,2.26h0Zm0,3.22-0.16-.28,3.93-2.26,0.16,0.28-3.93,2.26h0Zm0,3.22-0.16-.28,3.93-2.26,0.16,0.28-3.93,2.26h0Zm0,3.22-0.16-.28,3.93-2.26,0.16,0.28-3.93,2.26h0Zm0,3.22-0.16-.28,3.93-2.26,0.16,0.28-3.93,2.26h0Zm-5.36-21.58-0.16-.28,3.93-2.26,0.16,0.28-3.93,2.26h0Zm0,3.22-0.16-.28,3.93-2.26,0.16,0.28-3.93,2.26h0Zm0,3.22-0.16-.28,3.93-2.26,0.16,0.28L100.81,201h0Zm0,3.22-0.16-.28,3.93-2.26,0.16,0.28-3.93,2.26h0Zm0,3.22-0.16-.28,3.93-2.26,0.16,0.28-3.93,2.26h0Zm0-11.28-0.16-.28,3.93-2.26,0.16,0.28-3.93,2.26h0Zm0,3.22-0.16-.28,3.93-2.26,0.16,0.28-3.93,2.26h0Zm0,3.22-0.16-.28,3.93-2.26,0.16,0.28-3.93,2.26h0Zm0,3.22-0.16-.28,3.93-2.26,0.16,0.28-3.93,2.26h0Zm0,3.22-0.16-.28,3.93-2.26,0.16,0.28-3.93,2.26h0Zm-0.16-11.2-0.16-.28,3.93-2.26,0.16,0.28-3.93,2.26h0Zm0,3.22-0.16-.28,3.93-2.26,0.16,0.28-3.93,2.26h0Zm0,3.22L100.5,204l3.93-2.26,0.16,0.28-3.93,2.26h0Zm0,3.22-0.16-.28,3.93-2.26,0.16,0.28-3.93,2.26h0Zm0,3.22-0.16-.28,3.93-2.26,0.16,0.28-3.93,2.26h0Zm0-11.28-0.16-.28,3.93-2.26,0.16,0.28-3.93,2.26h0Zm0,3.22-0.16-.28,3.93-2.26,0.16,0.28-3.93,2.26h0Zm0,3.22-0.16-.28,3.93-2.26,0.16,0.28-3.93,2.26h0Zm0,3.22-0.16-.28,3.93-2.26,0.16,0.28-3.93,2.26h0Zm0,3.22-0.16-.28,3.93-2.26,0.16,0.28-3.93,2.26h0Zm0.16-17.73-0.16-.28,3.93-2.26,0.16,0.28-3.93,2.26h0Zm0,3.22-0.16-.28,3.93-2.26,0.16,0.28-3.93,2.26h0Zm0,3.22-0.16-.28,3.93-2.26,0.16,0.28-3.93,2.26h0Zm0,3.22-0.16-.28,3.93-2.26,0.16,0.28-3.93,2.26h0Zm0,3.22-0.16-.28,3.93-2.26,0.16,0.28-3.93,2.26h0Zm0-11.28-0.16-.28,3.93-2.26,0.16,0.28-3.93,2.26h0Zm0,3.22-0.16-.28,3.93-2.26,0.16,0.28-3.93,2.26h0Zm0,3.22-0.16-.28,3.93-2.26,0.16,0.28-3.93,2.26h0Zm0,3.22-0.16-.28,3.93-2.26,0.16,0.28-3.93,2.26h0Zm0,3.22-0.16-.28,3.93-2.26,0.16,0.28-3.93,2.26h0Zm-0.16-11.2-0.16-.28,3.93-2.26,0.16,0.28-3.93,2.26h0Zm0,3.22-0.16-.28,3.93-2.26,0.16,0.28-3.93,2.26h0Zm0,3.22-0.16-.28,3.93-2.26,0.16,0.28-3.93,2.26h0Zm0,3.22-0.16-.28,3.93-2.26,0.16,0.28-3.93,2.26h0Zm0,3.22-0.16-.28,3.93-2.26,0.16,0.28-3.93,2.26h0Zm0-11.28-0.16-.28,3.93-2.26,0.16,0.28-3.93,2.26h0Zm0,3.22-0.16-.28,3.93-2.26,0.16,0.28-3.93,2.26h0Zm0,3.22-0.16-.28,3.93-2.26,0.16,0.28L100.66,206h0Zm0,3.22-0.16-.28,3.93-2.26,0.16,0.28-3.93,2.26h0Zm0,3.22-0.16-.28,3.93-2.26,0.16,0.28-3.93,2.26h0Zm0.16-17.73-0.16-.28,3.93-2.26,0.16,0.28-3.93,2.26h0Zm0,3.22-0.16-.28,3.93-2.26,0.16,0.28-3.93,2.26h0Zm0,3.22-0.16-.28,3.93-2.26,0.16,0.28-3.93,2.26h0Zm0,3.22-0.16-.28,3.93-2.26,0.16,0.28-3.93,2.26h0Zm0,3.22-0.16-.28,3.93-2.26,0.16,0.28-3.93,2.26h0Zm0-11.28-0.16-.28,3.93-2.26,0.16,0.28-3.93,2.26h0Zm0,3.22-0.16-.28,3.93-2.26,0.16,0.28-3.93,2.26h0Zm0,3.22-0.16-.28,3.93-2.26,0.16,0.28-3.93,2.26h0Zm0,3.22-0.16-.28,3.93-2.26,0.16,0.28L100.81,206h0Zm0,3.22-0.16-.28,3.93-2.26,0.16,0.28-3.93,2.26h0ZM100.66,198l-0.16-.28,3.93-2.26,0.16,0.28L100.66,198h0Zm0,3.22-0.16-.28,3.93-2.26,0.16,0.28-3.93,2.26h0Zm0,3.22-0.16-.28,3.93-2.26,0.16,0.28-3.93,2.26h0Zm0,3.22-0.16-.28,3.93-2.26,0.16,0.28-3.93,2.26h0Zm0,3.22-0.16-.28,3.93-2.26,0.16,0.28-3.93,2.26h0Zm0-11.28-0.16-.28,3.93-2.26,0.16,0.28-3.93,2.26h0Zm0,3.22-0.16-.28,3.93-2.26,0.16,0.28-3.93,2.26h0Zm0,3.22-0.16-.28,3.93-2.26,0.16,0.28-3.93,2.26h0Zm0,3.22L100.5,209l3.93-2.26,0.16,0.28-3.93,2.26h0Zm0,3.22-0.16-.28,3.93-2.26,0.16,0.28-3.93,2.26h0Zm0.16-17.73-0.16-.28,3.93-2.26,0.16,0.28-3.93,2.26h0Zm0,3.22-0.16-.28,3.93-2.26,0.16,0.28L100.81,198h0Zm0,3.22-0.16-.28,3.93-2.26,0.16,0.28-3.93,2.26h0Zm0,3.22-0.16-.28,3.93-2.26,0.16,0.28-3.93,2.26h0Zm0,3.22-0.16-.28,3.93-2.26,0.16,0.28-3.93,2.26h0Zm0-11.28-0.16-.28,3.93-2.26,0.16,0.28-3.93,2.26h0Zm0,3.22-0.16-.28,3.93-2.26,0.16,0.28-3.93,2.26h0Zm0,3.22-0.16-.28,3.93-2.26,0.16,0.28-3.93,2.26h0Zm0,3.22-0.16-.28,3.93-2.26,0.16,0.28-3.93,2.26h0Zm0,3.22-0.16-.28,3.93-2.26,0.16,0.28-3.93,2.26h0Zm-0.16-11.2-0.16-.28,3.93-2.26,0.16,0.28-3.93,2.26h0Zm0,3.22L100.5,201l3.93-2.26,0.16,0.28-3.93,2.26h0Zm0,3.22-0.16-.28,3.93-2.26,0.16,0.28-3.93,2.26h0Zm0,3.22-0.16-.28,3.93-2.26,0.16,0.28-3.93,2.26h0Zm0,3.22-0.16-.28,3.93-2.26,0.16,0.28L100.66,211h0Zm0-11.28-0.16-.28,3.93-2.26,0.16,0.28-3.93,2.26h0Zm0,3.22-0.16-.28,3.93-2.26,0.16,0.28-3.93,2.26h0Zm0,3.22-0.16-.28,3.93-2.26,0.16,0.28-3.93,2.26h0Zm0,3.22-0.16-.28,3.93-2.26,0.16,0.28-3.93,2.26h0Zm0,3.22-0.16-.28,3.93-2.26,0.16,0.28-3.93,2.26h0Z"/><path d="M170.55,213.67a25.63,25.63,0,0,1-34.39,0,21.84,21.84,0,0,1-6.92-16.44,21.61,21.61,0,0,1,6.92-16.41,25.86,25.86,0,0,1,34.39,0,23,23,0,0,1,0,32.81h0Zm-7.47-26.54a13,13,0,0,0-9.62-4,13.67,13.67,0,0,0-9.65,4,13.37,13.37,0,0,0-4.2,10.19,13.73,13.73,0,0,0,4.13,10.2,13.38,13.38,0,0,0,9.71,4.08,12.88,12.88,0,0,0,9.62-4.11,14,14,0,0,0,4-10.16,13.84,13.84,0,0,0-4-10.1h0Zm52.44,32.46-21.73-28.67V219.6h-9.68V175h9.23l21.8,28.8V175h9.62v44.6h-9.23Zm41-35.59a22.12,22.12,0,0,0-6.35-1.18,8.18,8.18,0,0,0-4.07.92,3,3,0,0,0-1.63,2.84,3.67,3.67,0,0,0,1.22,2.84,9.9,9.9,0,0,0,3.27,1.88q2.05,0.77,4.55,1.47a55.87,55.87,0,0,1,6.86,2.39,14.67,14.67,0,0,1,5.64,4.11,11.31,11.31,0,0,1,2.31,7.33,12,12,0,0,1-2.31,7.49,14,14,0,0,1-6.28,4.56,24.86,24.86,0,0,1-9,1.53A30.59,30.59,0,0,1,231,213l4-8.22a30.22,30.22,0,0,0,8.17,5,20.91,20.91,0,0,0,7.72,1.75,9.21,9.21,0,0,0,4.84-1.12,3.66,3.66,0,0,0,1.83-3.35,3.71,3.71,0,0,0-1.25-2.9,10.3,10.3,0,0,0-3.33-1.88q-2.08-.77-4.65-1.47a54.76,54.76,0,0,1-6.76-2.26,15,15,0,0,1-5.64-3.92q-2.28-2.55-2.28-7.2a11.52,11.52,0,0,1,2.28-7.23,14.24,14.24,0,0,1,6.22-4.52,24,24,0,0,1,8.88-1.56,30.86,30.86,0,0,1,17.05,4.91l-3.91,8.35a37.54,37.54,0,0,0-7.63-3.41h0Zm39.74-.92a13.13,13.13,0,0,0-9.71,4,13.6,13.6,0,0,0-3.94,10,14,14,0,0,0,3.88,10,12.87,12.87,0,0,0,9.78,4.11q6.09,0,11.67-5.29l6,6.44q-8.33,8-18.14,8a22.92,22.92,0,0,1-16.8-6.66,22.25,22.25,0,0,1-6.73-16.47,21.66,21.66,0,0,1,6.86-16.31,23.7,23.7,0,0,1,17.05-6.56,25.22,25.22,0,0,1,17.69,7.45l-5.9,7.2q-5.39-5.86-11.67-5.86h0ZM320,219.6V175h10.13v44.6H320Zm54.94-8.35v8.35H340V175h34.17v8.35h-24V193h21.6v8.35h-21.6v9.88h24.74Zm39.36,8.35-21.73-28.67V219.6h-9.68V175h9.23l21.8,28.8V175h9.62v44.6h-9.23Zm39.94-36.51a13.13,13.13,0,0,0-9.71,4,13.6,13.6,0,0,0-3.94,10,14,14,0,0,0,3.88,10,12.87,12.87,0,0,0,9.78,4.11q6.09,0,11.67-5.29l6,6.44q-8.33,8-18.14,8a22.92,22.92,0,0,1-16.8-6.66,22.25,22.25,0,0,1-6.73-16.47A21.66,21.66,0,0,1,437,180.86a23.7,23.7,0,0,1,17.05-6.56,25.22,25.22,0,0,1,17.69,7.45l-5.9,7.2q-5.39-5.86-11.67-5.86h0Zm58.53,28.16v8.35H477.84V175H512v8.35H488V193h21.6v8.35H488v9.88h24.74Z"/><path class="cls-1" d="M119.5,187.27a13.69,13.69,0,1,0,0,19.65l7.18,7.18a23.85,23.85,0,1,1,0-34l-7.18,7.18h0Z"/><path class="cls-1" d="M96.29,197s0,0.09,0,.13a13.68,13.68,0,0,0,23.21,9.83l7.18,7.18a23.84,23.84,0,0,1-40.56-17c0-.08,0-0.15,0-0.22L96.29,197h0Z"/><path class="cls-1" d="M104.05,184.75A13.69,13.69,0,0,0,96.29,197l-10.16-.11A23.85,23.85,0,0,1,99.84,175.5l4.21,9.25h0Z"/><line class="cls-2" x1="86.13" y1="197.09" x2="96.37" y2="197.09"/><line class="cls-2" x1="99.84" y1="175.5" x2="104.05" y2="184.75"/><path d="M189.89,245.2l0-10.11-4.1,8.7h-1.34l-4.14-8.7V245.2h-1.94V231.72h2.44l4.31,9,4.28-9h2.44V245.2h-1.94Zm17-1.36a5.09,5.09,0,0,1-3.92,1.53,5.18,5.18,0,0,1-4-1.53,5.83,5.83,0,0,1-1.44-4.17v-8h2.1v8a3.79,3.79,0,0,0,.89,2.67,3.11,3.11,0,0,0,2.41,1,3,3,0,0,0,2.37-1,3.84,3.84,0,0,0,.87-2.68v-8h2.1v8a5.87,5.87,0,0,1-1.43,4.17h0ZM214,245.2V231.72h2.1v11.42h5.4v2.06H214Zm16.76-11.44V245.2h-2.1V233.76H224.7v-2h10v2h-4Zm8.43,11.44V231.72h2.1V245.2h-2.1Zm24.44-11.44h-6.26v3.89H263v2h-5.67v5.53h-2.1V231.72h8.38l0,2h0Zm13.32,11.44-1.19-3h-6.29l-1.19,3h-2.19l5.51-13.48h2.16l5.46,13.48h-2.25Zm-4.35-11.05-2.35,6h4.71l-2.35-6h0ZM295,245.2l0-10.11-4.1,8.7h-1.34l-4.14-8.7V245.2h-1.94V231.72H286l4.31,9,4.28-9H297V245.2H295Zm7.9,0V231.72H305V245.2h-2.1Zm8.06,0V231.72h2.1v11.42h5.4v2.06H311Zm17.31-4.49v4.49h-2.09v-4.41l-4.65-9.07h2.12l3.57,6.57,3.49-6.57h2.14l-4.58,9h0Zm27.22,2.65a6.51,6.51,0,0,1-9.41,0,6.88,6.88,0,0,1-1.91-4.92,6.78,6.78,0,0,1,1.91-4.9,6.59,6.59,0,0,1,9.41,0,6.79,6.79,0,0,1,1.91,4.89,6.88,6.88,0,0,1-1.91,4.92h0ZM354,235a4.14,4.14,0,0,0-3.14-1.4,4.22,4.22,0,0,0-3.16,1.4,4.77,4.77,0,0,0-1.33,3.42,4.86,4.86,0,0,0,1.33,3.46,4.19,4.19,0,0,0,3.16,1.42A4.11,4.11,0,0,0,354,241.9a4.92,4.92,0,0,0,1.3-3.46A4.83,4.83,0,0,0,354,235h0Zm16.74-1.26h-6.26v3.89h5.67v2h-5.67v5.53h-2.1V231.72h8.38l0,2h0Zm12.92,0h-6.26v3.89h5.67v2h-5.67v5.53h-2.1V231.72h8.38l0,2h0Zm4.56,11.44V231.72h2.1V245.2h-2.1Zm13.62-11.59a4.15,4.15,0,0,0-3.16,1.4,5.15,5.15,0,0,0,0,6.83,4.13,4.13,0,0,0,3.16,1.41,4.84,4.84,0,0,0,3.48-1.62l1.25,1.5a6.6,6.6,0,0,1-4.83,2.25,6.06,6.06,0,0,1-4.62-2,7,7,0,0,1-1.87-4.92,6.8,6.8,0,0,1,1.9-4.89,6.2,6.2,0,0,1,4.66-2,6.49,6.49,0,0,1,4.74,2.12l-1.23,1.66a4.63,4.63,0,0,0-3.48-1.73h0Zm18.66,9.55v2h-9.13V231.72h8.91v2h-6.81v3.66h6.1v2h-6.1v3.72h7Z"/></svg>