<svg id="Layer_1" data-name="Layer 1" xmlns="http://www.w3.org/2000/svg" viewBox="0 0 600 400"><defs><style>.cls-1,.cls-2,.cls-3{fill:#fff;}.cls-2{fill-rule:evenodd;}.cls-3{stroke:#000;stroke-miterlimit:10;}</style></defs><title>final</title><path class="cls-1" d="M108.6,216.27h4.51v-17.4H108.6v17.4Zm0.62-16.78h3.27v16.17h-3.27V199.49Z"/><path class="cls-1" d="M114.1,195.83v15.45h4.52V195.83H114.1Zm3.9,14.83h-3.28V196.45H118v14.21Z"/><path class="cls-1" d="M103.12,216.4h4.5V191.87h-4.5V216.4Zm0.62-23.92H107v23.3h-3.26v-23.3Z"/><path class="cls-1" d="M114.47,198.49l-0.16-.28,3.93-2.26,0.16,0.28-3.93,2.26h0Zm0,3.22-0.16-.28,3.93-2.26,0.16,0.28-3.93,2.26h0Zm0,3.22-0.16-.28,3.93-2.26,0.16,0.28-3.93,2.26h0Zm0,3.22-0.16-.28,3.93-2.26,0.16,0.28-3.93,2.26h0Zm0,3.22-0.16-.28,3.93-2.26,0.16,0.28-3.93,2.26h0Zm0-11.28-0.16-.28,3.93-2.26,0.16,0.28-3.93,2.26h0Zm0,3.22-0.16-.28,3.93-2.26,0.16,0.28-3.93,2.26h0Zm0,3.22-0.16-.28,3.93-2.26,0.16,0.28-3.93,2.26h0Zm0,3.22-0.16-.28,3.93-2.26,0.16,0.28-3.93,2.26h0Zm0,3.22-0.16-.28,3.93-2.26,0.16,0.28L114.47,213h0Zm0-14.43-0.16-.28,3.93-2.26,0.16,0.28-3.93,2.26h0Zm0,3.22-0.16-.28,3.93-2.26,0.16,0.28-3.93,2.26h0Zm0,3.22-0.16-.28,3.93-2.26,0.16,0.28L114.47,205h0Zm0,3.22-0.16-.28,3.93-2.26,0.16,0.28-3.93,2.26h0Zm0,3.22-0.16-.28,3.93-2.26,0.16,0.28-3.93,2.26h0Zm0-11.28-0.16-.28,3.93-2.26,0.16,0.28-3.93,2.26h0Zm0,3.22-0.16-.28,3.93-2.26,0.16,0.28-3.93,2.26h0Zm0,3.22-0.16-.28,3.93-2.26,0.16,0.28-3.93,2.26h0Zm0,3.22-0.16-.28,3.93-2.26,0.16,0.28-3.93,2.26h0Zm0,3.22-0.16-.28,3.93-2.26,0.16,0.28-3.93,2.26h0Zm0-14.43-0.16-.28,3.93-2.26,0.16,0.28-3.93,2.26h0Zm0,3.22-0.16-.28,3.93-2.26,0.16,0.28-3.93,2.26h0Zm0,3.22-0.16-.28,3.93-2.26,0.16,0.28-3.93,2.26h0Zm0,3.22-0.16-.28,3.93-2.26,0.16,0.28-3.93,2.26h0Zm0,3.22-0.16-.28,3.93-2.26,0.16,0.28-3.93,2.26h0Zm0-11.28-0.16-.28,3.93-2.26,0.16,0.28-3.93,2.26h0Zm0,3.22-0.16-.28,3.93-2.26,0.16,0.28-3.93,2.26h0Zm0,3.22-0.16-.28,3.93-2.26,0.16,0.28-3.93,2.26h0Zm0,3.22-0.16-.28,3.93-2.26,0.16,0.28-3.93,2.26h0Zm0,3.22-0.16-.28,3.93-2.26,0.16,0.28-3.93,2.26h0Zm0-14.43-0.16-.28,3.93-2.26,0.16,0.28-3.93,2.26h0Zm0,3.22-0.16-.28,3.93-2.26,0.16,0.28-3.93,2.26h0Zm0,3.22-0.16-.28,3.93-2.26,0.16,0.28-3.93,2.26h0Zm0,3.22-0.16-.28,3.93-2.26,0.16,0.28-3.93,2.26h0Zm0,3.22-0.16-.28,3.93-2.26,0.16,0.28-3.93,2.26h0Zm0-11.28-0.16-.28,3.93-2.26,0.16,0.28-3.93,2.26h0Zm0,3.22-0.16-.28,3.93-2.26,0.16,0.28-3.93,2.26h0Zm0,3.22-0.16-.28,3.93-2.26,0.16,0.28-3.93,2.26h0Zm0,3.22-0.16-.28,3.93-2.26,0.16,0.28L114.47,210h0Zm0,3.22-0.16-.28,3.93-2.26,0.16,0.28-3.93,2.26h0ZM109,201.39l-0.16-.28,3.93-2.26,0.16,0.28L109,201.39h0Zm0,3.22-0.16-.28,3.93-2.26,0.16,0.28L109,204.62h0Zm0,3.22-0.16-.28,3.93-2.26,0.16,0.28L109,207.84h0Zm0,3.22-0.16-.28,3.93-2.26,0.16,0.28L109,211.06h0Zm0,3.22L108.8,214l3.93-2.26,0.16,0.28L109,214.29h0ZM109,203l-0.16-.28,3.93-2.26,0.16,0.28L109,203h0Zm0,3.22-0.16-.28,3.93-2.26,0.16,0.28L109,206.23h0Zm0,3.22-0.16-.28,3.93-2.26,0.16,0.28L109,209.45h0Zm0,3.22-0.16-.28,3.93-2.26,0.16,0.28L109,212.68h0Zm0,3.22-0.16-.28,3.93-2.26,0.16,0.28L109,215.9h0Zm0-14.43-0.16-.28,3.93-2.26,0.16,0.28L109,201.47h0Zm0,3.22-0.16-.28,3.93-2.26,0.16,0.28L109,204.69h0Zm0,3.22-0.16-.28,3.93-2.26,0.16,0.28L109,207.92h0Zm0,3.22-0.16-.28,3.93-2.26,0.16,0.28L109,211.14h0Zm0,3.22-0.16-.28,3.93-2.26,0.16,0.28L109,214.36h0Zm0-11.28-0.16-.28,3.93-2.26,0.16,0.28L109,203.08h0Zm0,3.22L108.8,206l3.93-2.26,0.16,0.28L109,206.31h0Zm0,3.22-0.16-.28,3.93-2.26,0.16,0.28L109,209.53h0Zm0,3.22-0.16-.28,3.93-2.26,0.16,0.28L109,212.75h0Zm0,3.22-0.16-.28,3.93-2.26,0.16,0.28L109,216h0Zm0-14.43-0.16-.28,3.93-2.26,0.16,0.28L109,201.55h0Zm0,3.22-0.16-.28,3.93-2.26,0.16,0.28L109,204.77h0Zm0,3.22-0.16-.28,3.93-2.26,0.16,0.28L109,208h0Zm0,3.22-0.16-.28,3.93-2.26,0.16,0.28L109,211.22h0Zm0,3.22-0.16-.28,3.93-2.26,0.16,0.28L109,214.44h0Zm0-11.28-0.16-.28,3.93-2.26,0.16,0.28L109,203.16h0Zm0,3.22-0.16-.28,3.93-2.26,0.16,0.28L109,206.38h0Zm0,3.22-0.16-.28,3.93-2.26,0.16,0.28L109,209.61h0Zm0,3.22-0.16-.28,3.93-2.26,0.16,0.28L109,212.83h0Zm0,3.22-0.16-.28,3.93-2.26,0.16,0.28L109,216.05h0Zm0-14.43-0.16-.28,3.93-2.26,0.16,0.28L109,201.63h0Zm0,3.22-0.16-.28,3.93-2.26,0.16,0.28L109,204.85h0Zm0,3.22-0.16-.28,3.93-2.26,0.16,0.28L109,208.07h0Zm0,3.22L108.8,211l3.93-2.26,0.16,0.28L109,211.3h0Zm0,3.22-0.16-.28,3.93-2.26,0.16,0.28L109,214.52h0Zm0-11.28L108.8,203l3.93-2.26,0.16,0.28L109,203.24h0Zm0,3.22-0.16-.28,3.93-2.26,0.16,0.28L109,206.46h0Zm0,3.22-0.16-.28,3.93-2.26,0.16,0.28L109,209.68h0Zm0,3.22-0.16-.28,3.93-2.26,0.16,0.28L109,212.91h0Zm0,3.22-0.16-.28,3.93-2.26,0.16,0.28L109,216.13h0Zm-5.36-21.58-0.16-.28,3.93-2.26,0.16,0.28-3.93,2.26h0Zm0,3.22-0.16-.28,3.93-2.26,0.16,0.28-3.93,2.26h0Zm0,3.22-0.16-.28,3.93-2.26,0.16,0.28L103.6,201h0Zm0,3.22-0.16-.28,3.93-2.26,0.16,0.28-3.93,2.26h0Zm0,3.22-0.16-.28,3.93-2.26,0.16,0.28-3.93,2.26h0Zm0-11.28-0.16-.28,3.93-2.26,0.16,0.28-3.93,2.26h0Zm0,3.22-0.16-.28,3.93-2.26,0.16,0.28-3.93,2.26h0Zm0,3.22-0.16-.28,3.93-2.26,0.16,0.28-3.93,2.26h0Zm0,3.22-0.16-.28,3.93-2.26,0.16,0.28-3.93,2.26h0Zm0,3.22-0.16-.28,3.93-2.26,0.16,0.28-3.93,2.26h0Zm-0.16-11.2-0.16-.28,3.93-2.26,0.16,0.28-3.93,2.26h0Zm0,3.22-0.16-.28,3.93-2.26,0.16,0.28-3.93,2.26h0Zm0,3.22-0.16-.28,3.93-2.26,0.16,0.28-3.93,2.26h0Zm0,3.22-0.16-.28,3.93-2.26,0.16,0.28-3.93,2.26h0Zm0,3.22-0.16-.28,3.93-2.26,0.16,0.28-3.93,2.26h0Zm0-11.28-0.16-.28,3.93-2.26,0.16,0.28-3.93,2.26h0Zm0,3.22-0.16-.28,3.93-2.26,0.16,0.28-3.93,2.26h0Zm0,3.22-0.16-.28,3.93-2.26,0.16,0.28-3.93,2.26h0Zm0,3.22-0.16-.28,3.93-2.26,0.16,0.28-3.93,2.26h0Zm0,3.22-0.16-.28,3.93-2.26,0.16,0.28-3.93,2.26h0Zm0.16-17.73-0.16-.28,3.93-2.26,0.16,0.28-3.93,2.26h0Zm0,3.22-0.16-.28,3.93-2.26,0.16,0.28-3.93,2.26h0Zm0,3.22-0.16-.28,3.93-2.26,0.16,0.28-3.93,2.26h0Zm0,3.22-0.16-.28,3.93-2.26,0.16,0.28-3.93,2.26h0Zm0,3.22-0.16-.28,3.93-2.26,0.16,0.28-3.93,2.26h0Zm0-11.28-0.16-.28,3.93-2.26,0.16,0.28-3.93,2.26h0Zm0,3.22-0.16-.28,3.93-2.26,0.16,0.28-3.93,2.26h0Zm0,3.22-0.16-.28,3.93-2.26,0.16,0.28-3.93,2.26h0Zm0,3.22-0.16-.28,3.93-2.26,0.16,0.28-3.93,2.26h0Zm0,3.22-0.16-.28,3.93-2.26,0.16,0.28-3.93,2.26h0Zm-0.16-11.2-0.16-.28,3.93-2.26,0.16,0.28-3.93,2.26h0Zm0,3.22-0.16-.28,3.93-2.26,0.16,0.28-3.93,2.26h0Zm0,3.22-0.16-.28,3.93-2.26,0.16,0.28-3.93,2.26h0Zm0,3.22-0.16-.28,3.93-2.26,0.16,0.28-3.93,2.26h0Zm0,3.22-0.16-.28,3.93-2.26,0.16,0.28-3.93,2.26h0Zm0-11.28-0.16-.28,3.93-2.26,0.16,0.28-3.93,2.26h0Zm0,3.22-0.16-.28,3.93-2.26,0.16,0.28-3.93,2.26h0Zm0,3.22-0.16-.28,3.93-2.26,0.16,0.28L103.45,206h0Zm0,3.22-0.16-.28,3.93-2.26,0.16,0.28-3.93,2.26h0Zm0,3.22-0.16-.28,3.93-2.26,0.16,0.28-3.93,2.26h0Zm0.16-17.73-0.16-.28,3.93-2.26,0.16,0.28-3.93,2.26h0Zm0,3.22-0.16-.28,3.93-2.26,0.16,0.28-3.93,2.26h0Zm0,3.22-0.16-.28,3.93-2.26,0.16,0.28-3.93,2.26h0Zm0,3.22-0.16-.28,3.93-2.26,0.16,0.28-3.93,2.26h0Zm0,3.22-0.16-.28,3.93-2.26,0.16,0.28-3.93,2.26h0Zm0-11.28-0.16-.28,3.93-2.26,0.16,0.28-3.93,2.26h0Zm0,3.22-0.16-.28,3.93-2.26,0.16,0.28-3.93,2.26h0Zm0,3.22-0.16-.28,3.93-2.26,0.16,0.28-3.93,2.26h0Zm0,3.22-0.16-.28,3.93-2.26,0.16,0.28L103.6,206h0Zm0,3.22-0.16-.28,3.93-2.26,0.16,0.28-3.93,2.26h0ZM103.45,198l-0.16-.28,3.93-2.26,0.16,0.28L103.45,198h0Zm0,3.22-0.16-.28,3.93-2.26,0.16,0.28-3.93,2.26h0Zm0,3.22-0.16-.28,3.93-2.26,0.16,0.28-3.93,2.26h0Zm0,3.22-0.16-.28,3.93-2.26,0.16,0.28-3.93,2.26h0Zm0,3.22-0.16-.28,3.93-2.26,0.16,0.28-3.93,2.26h0Zm0-11.28-0.16-.28,3.93-2.26,0.16,0.28-3.93,2.26h0Zm0,3.22-0.16-.28,3.93-2.26,0.16,0.28-3.93,2.26h0Zm0,3.22-0.16-.28,3.93-2.26,0.16,0.28-3.93,2.26h0Zm0,3.22-0.16-.28,3.93-2.26,0.16,0.28-3.93,2.26h0Zm0,3.22-0.16-.28,3.93-2.26,0.16,0.28-3.93,2.26h0Zm0.16-17.73-0.16-.28,3.93-2.26,0.16,0.28-3.93,2.26h0Zm0,3.22-0.16-.28,3.93-2.26,0.16,0.28L103.6,198h0Zm0,3.22-0.16-.28,3.93-2.26,0.16,0.28-3.93,2.26h0Zm0,3.22-0.16-.28,3.93-2.26,0.16,0.28-3.93,2.26h0Zm0,3.22-0.16-.28,3.93-2.26,0.16,0.28-3.93,2.26h0Zm0-11.28-0.16-.28,3.93-2.26,0.16,0.28-3.93,2.26h0Zm0,3.22-0.16-.28,3.93-2.26,0.16,0.28-3.93,2.26h0Zm0,3.22-0.16-.28,3.93-2.26,0.16,0.28-3.93,2.26h0Zm0,3.22-0.16-.28,3.93-2.26,0.16,0.28-3.93,2.26h0Zm0,3.22-0.16-.28,3.93-2.26,0.16,0.28-3.93,2.26h0Zm-0.16-11.2-0.16-.28,3.93-2.26,0.16,0.28-3.93,2.26h0Zm0,3.22-0.16-.28,3.93-2.26,0.16,0.28-3.93,2.26h0Zm0,3.22-0.16-.28,3.93-2.26,0.16,0.28-3.93,2.26h0Zm0,3.22-0.16-.28,3.93-2.26,0.16,0.28-3.93,2.26h0Zm0,3.22-0.16-.28,3.93-2.26,0.16,0.28L103.45,211h0Zm0-11.28-0.16-.28,3.93-2.26,0.16,0.28-3.93,2.26h0Zm0,3.22-0.16-.28,3.93-2.26,0.16,0.28-3.93,2.26h0Zm0,3.22-0.16-.28,3.93-2.26,0.16,0.28-3.93,2.26h0Zm0,3.22-0.16-.28,3.93-2.26,0.16,0.28-3.93,2.26h0Zm0,3.22-0.16-.28,3.93-2.26,0.16,0.28-3.93,2.26h0Z"/><path class="cls-1" d="M173.34,213.67a25.63,25.63,0,0,1-34.39,0A21.84,21.84,0,0,1,132,197.23,21.61,21.61,0,0,1,139,180.82a25.86,25.86,0,0,1,34.39,0,23,23,0,0,1,0,32.81h0Zm-7.47-26.54a13,13,0,0,0-9.62-4,13.67,13.67,0,0,0-9.65,4,13.37,13.37,0,0,0-4.2,10.19,13.73,13.73,0,0,0,4.13,10.2,13.38,13.38,0,0,0,9.71,4.08,12.88,12.88,0,0,0,9.62-4.11,14,14,0,0,0,4-10.16,13.84,13.84,0,0,0-4-10.1h0Zm52.44,32.46-21.73-28.67V219.6H186.9V175h9.23l21.8,28.8V175h9.62v44.6h-9.23Zm41-35.59a22.12,22.12,0,0,0-6.35-1.18,8.18,8.18,0,0,0-4.07.92,3,3,0,0,0-1.63,2.84,3.67,3.67,0,0,0,1.22,2.84,9.9,9.9,0,0,0,3.27,1.88q2.05,0.77,4.55,1.47a55.87,55.87,0,0,1,6.86,2.39,14.67,14.67,0,0,1,5.64,4.11,11.31,11.31,0,0,1,2.31,7.33,12,12,0,0,1-2.31,7.49,14,14,0,0,1-6.28,4.56,24.86,24.86,0,0,1-9,1.53A30.59,30.59,0,0,1,233.76,213l4-8.22a30.22,30.22,0,0,0,8.17,5,20.91,20.91,0,0,0,7.72,1.75,9.21,9.21,0,0,0,4.84-1.12,3.66,3.66,0,0,0,1.83-3.35,3.71,3.71,0,0,0-1.25-2.9,10.3,10.3,0,0,0-3.33-1.88q-2.08-.77-4.65-1.47a54.76,54.76,0,0,1-6.76-2.26,15,15,0,0,1-5.64-3.92q-2.28-2.55-2.28-7.2a11.52,11.52,0,0,1,2.28-7.23,14.24,14.24,0,0,1,6.22-4.52,24,24,0,0,1,8.88-1.56,30.86,30.86,0,0,1,17.05,4.91L267,187.42a37.54,37.54,0,0,0-7.63-3.41h0Zm39.74-.92a13.13,13.13,0,0,0-9.71,4,13.6,13.6,0,0,0-3.94,10,14,14,0,0,0,3.88,10,12.87,12.87,0,0,0,9.78,4.11q6.09,0,11.67-5.29l6,6.44q-8.33,8-18.14,8a22.92,22.92,0,0,1-16.8-6.66A22.25,22.25,0,0,1,275,197.17a21.66,21.66,0,0,1,6.86-16.31A23.7,23.7,0,0,1,299,174.29a25.22,25.22,0,0,1,17.69,7.45l-5.9,7.2q-5.39-5.86-11.67-5.86h0Zm23.65,36.51V175h10.13v44.6H322.74Zm54.94-8.35v8.35H342.8V175H377v8.35h-24V193h21.6v8.35h-21.6v9.88h24.74ZM417,219.6l-21.73-28.67V219.6h-9.68V175h9.23l21.8,28.8V175h9.62v44.6H417ZM457,183.09a13.13,13.13,0,0,0-9.71,4,13.6,13.6,0,0,0-3.94,10,14,14,0,0,0,3.88,10,12.87,12.87,0,0,0,9.78,4.11q6.09,0,11.67-5.29l6,6.44q-8.33,8-18.14,8a22.92,22.92,0,0,1-16.8-6.66,22.25,22.25,0,0,1-6.73-16.47,21.66,21.66,0,0,1,6.86-16.31,23.7,23.7,0,0,1,17.05-6.56,25.22,25.22,0,0,1,17.69,7.45l-5.9,7.2q-5.39-5.86-11.67-5.86h0Zm58.53,28.16v8.35H480.63V175H514.8v8.35h-24V193h21.6v8.35h-21.6v9.88H515.5Z"/><path class="cls-2" d="M122.29,187.27a13.69,13.69,0,1,0,0,19.65l7.18,7.18a23.85,23.85,0,1,1,0-34l-7.18,7.18h0Z"/><path class="cls-2" d="M99.08,197s0,0.09,0,.13a13.68,13.68,0,0,0,23.21,9.83l7.18,7.18a23.84,23.84,0,0,1-40.56-17c0-.08,0-0.15,0-0.22L99.08,197h0Z"/><path class="cls-2" d="M106.84,184.75A13.69,13.69,0,0,0,99.08,197l-10.16-.11a23.85,23.85,0,0,1,13.71-21.35l4.21,9.25h0Z"/><line class="cls-3" x1="88.92" y1="197.09" x2="99.16" y2="197.09"/><line class="cls-3" x1="102.63" y1="175.5" x2="106.84" y2="184.75"/><path class="cls-1" d="M209.75,231.39h-5.1v13.82h2.16V241h2.94a5.11,5.11,0,0,0,3.74-1.3,4.87,4.87,0,0,0,1.33-3.63,4.53,4.53,0,0,0-1.33-3.49A5.28,5.28,0,0,0,209.75,231.39Zm2.19,6.87a3.4,3.4,0,0,1-2.29.69h-2.85v-5.47h2.85a3.51,3.51,0,0,1,2.29.66,2.47,2.47,0,0,1,.8,2A2.61,2.61,0,0,1,211.95,238.26Zm18.1-2.15a4.48,4.48,0,0,0-1.35-3.49,5.44,5.44,0,0,0-3.8-1.23H219.7v13.82h2.16V241q3.35,0,3.62,0l2.34,4.19h2.45l-2.87-4.62A4.43,4.43,0,0,0,230.05,236.11ZM224.89,239h-3v-5.47h3a3.55,3.55,0,0,1,2.3.66,2.46,2.46,0,0,1,.81,2,2.59,2.59,0,0,1-.81,2.09A3.44,3.44,0,0,1,224.89,239Zm10.77,6.26h2.16V231.39h-2.16v13.82Zm12.91-2.59-4-11.24H242.3l5.1,13.82h2.23l5.18-13.82h-2.25Zm13.81-11.24-5.65,13.82H259l1.23-3.12h6.46l1.23,3.12h2.3l-5.6-13.82h-2.21ZM261,240l2.41-6.14,2.41,6.14H261Zm10.84-6.54h4v11.73h2.16V233.48h4.06v-2.09H271.85v2.09Zm17,5.83h6.25v-2.07h-6.25v-3.75h7v-2.09H286.7v13.82h9.36v-2.09h-7.21v-3.81ZM322,242.66l-3.18-11.28h-2.12l-3.16,11.28-3.16-11.28H308l4.32,13.82h2.21l3.15-10.86,3.09,10.86H323l4.33-13.82h-2.23Zm12-3.36h6.25v-2.07H334v-3.75h7v-2.09h-9.14v13.82h9.36v-2.09H334v-3.81Zm16.57-7.92-5.65,13.82h2.25l1.23-3.12h6.46l1.23,3.12h2.3l-5.6-13.82h-2.21ZM349.21,240l2.41-6.14L354,240h-4.83ZM365,231.39h-2.16v13.82h7.7V243.1H365V231.39Zm8.83,2.09h4v11.73H380V233.48h4.06v-2.09H373.82v2.09Zm23.79-2.09v6h-6.78v-6h-2.16v13.82h2.16v-5.73h6.78v5.73h2.16V231.39h-2.16Z"/></svg>