<svg id="Layer_1" data-name="Layer 1" xmlns="http://www.w3.org/2000/svg" viewBox="0 0 600 400"><defs><style>.cls-1,.cls-3{fill:#d29334;}.cls-2{fill:#00b091;}.cls-2,.cls-3,.cls-4,.cls-5,.cls-8{fill-rule:evenodd;}.cls-4{fill:#147ed0;}.cls-6{fill:none;stroke:#fff;}.cls-6,.cls-9{stroke-miterlimit:10;}.cls-7,.cls-8,.cls-9{fill:#fff;}.cls-9{stroke:#000;}</style></defs><title>final</title><path class="cls-1" d="M146.19,135.92h7.94V105.28h-7.94v30.64Zm1.09-29.55H153v28.46h-5.76V106.37Z"/><path class="cls-1" d="M155.87,99.93v27.2h8V99.93h-8ZM162.74,126H157V101h5.78v25Z"/><path class="cls-1" d="M136.55,136.15h7.92V93h-7.92v43.2ZM137.64,94h5.74v41h-5.74V94Z"/><path class="cls-1" d="M156.53,104.62l-0.29-.49,6.92-4,0.29,0.49-6.92,4h0Zm0,5.67-0.29-.49,6.92-4,0.29,0.49-6.92,4h0Zm0,5.68-0.29-.49,6.92-4,0.29,0.49-6.92,4h0Zm0,5.68-0.29-.49,6.92-4,0.29,0.49-6.92,4h0Zm0,5.68-0.29-.49,6.92-4,0.29,0.49-6.92,4h0Zm0-19.86-0.29-.49,6.92-4,0.29,0.49-6.92,4h0Zm0,5.68-0.29-.49,6.92-4,0.29,0.49-6.92,4h0Zm0,5.68-0.29-.49,6.92-4,0.29,0.49-6.92,4h0Zm0,5.67-0.29-.49,6.92-4,0.29,0.49-6.92,4h0Zm0,5.68-0.29-.49,6.92-4,0.29,0.49-6.92,4h0Zm0-25.4-0.29-.49,6.92-4,0.29,0.49-6.92,4h0Zm0,5.68-0.29-.49,6.92-4,0.29,0.49-6.92,4h0Zm0,5.67-0.29-.49,6.92-4,0.29,0.49-6.92,4h0Zm0,5.68-0.29-.49,6.92-4,0.29,0.49-6.92,4h0Zm0,5.68-0.29-.49,6.92-4,0.29,0.49-6.92,4h0Zm0-19.86-0.29-.49,6.92-4,0.29,0.49-6.92,4h0Zm0,5.68-0.29-.49,6.92-4,0.29,0.49-6.92,4h0Zm0,5.68-0.29-.49,6.92-4,0.29,0.49-6.92,4h0Zm0,5.68-0.29-.49,6.92-4,0.29,0.49-6.92,4h0Zm0,5.67-0.29-.49,6.92-4,0.29,0.49-6.92,4h0Zm0-25.4-0.29-.49,6.92-4,0.29,0.49-6.92,4h0Zm0,5.68-0.29-.49,6.92-4,0.29,0.49-6.92,4h0Zm0,5.68-0.29-.49,6.92-4,0.29,0.49-6.92,4h0Zm0,5.68-0.29-.49,6.92-4,0.29,0.49-6.92,4h0Zm0,5.67-0.29-.49,6.92-4,0.29,0.49-6.92,4h0Zm0-19.86-0.29-.49,6.92-4,0.29,0.49-6.92,4h0Zm0,5.67-0.29-.49,6.92-4,0.29,0.49-6.92,4h0Zm0,5.68-0.29-.49,6.92-4,0.29,0.49-6.92,4h0Zm0,5.68-0.29-.49,6.92-4,0.29,0.49-6.92,4h0Zm0,5.68-0.29-.49,6.92-4,0.29,0.49-6.92,4h0Zm0-25.4-0.29-.49,6.92-4,0.29,0.49-6.92,4h0Zm0,5.67-0.29-.49,6.92-4,0.29,0.49-6.92,4h0Zm0,5.68-0.29-.49,6.92-4,0.29,0.49-6.92,4h0Zm0,5.68-0.29-.49,6.92-4,0.29,0.49-6.92,4h0Zm0,5.68-0.29-.49,6.92-4,0.29,0.49-6.92,4h0Zm0-19.86-0.29-.49,6.92-4,0.29,0.49-6.92,4h0Zm0,5.68-0.29-.49,6.92-4,0.29,0.49-6.92,4h0Zm0,5.67-0.29-.49,6.92-4,0.29,0.49-6.92,4h0Zm0,5.68-0.29-.49,6.92-4,0.29,0.49-6.92,4h0Zm0,5.68-0.29-.49,6.92-4,0.29,0.49-6.92,4h0Zm-9.71-20.84-0.29-.49,6.92-4,0.28,0.49-6.92,4h0Zm0,5.68-0.29-.49,6.92-4,0.28,0.49-6.92,4h0Zm0,5.68-0.29-.49,6.92-4,0.28,0.49-6.92,4h0Zm0,5.67-0.29-.49,6.92-4,0.28,0.49-6.92,4h0Zm0,5.68-0.29-.49,6.92-4,0.28,0.49-6.92,4h0Zm0-19.86-0.29-.49,6.92-4,0.28,0.49-6.92,4h0Zm0,5.67-0.29-.49,6.92-4,0.28,0.49-6.92,4h0Zm0,5.68-0.29-.49,6.92-4,0.28,0.49-6.92,4h0Zm0,5.68-0.29-.49,6.92-4,0.28,0.49-6.92,4h0Zm0,5.67-0.29-.49,6.92-4,0.28,0.49-6.92,4h0Zm0-25.4-0.29-.49,6.92-4,0.28,0.49-6.92,4h0Zm0,5.68-0.29-.49,6.92-4,0.28,0.49-6.92,4h0Zm0,5.68-0.29-.49,6.92-4,0.28,0.49-6.92,4h0Zm0,5.68-0.29-.49,6.92-4,0.28,0.49-6.92,4h0Zm0,5.67-0.29-.49,6.92-4,0.28,0.49-6.92,4h0Zm0-19.86-0.29-.49,6.92-4,0.28,0.49-6.92,4h0Zm0,5.68-0.29-.49,6.92-4,0.28,0.49-6.92,4h0Zm0,5.67-0.29-.49,6.92-4,0.28,0.49-6.92,4h0Zm0,5.68-0.29-.49,6.92-4,0.28,0.49-6.92,4h0Zm0,5.68-0.29-.49,6.92-4,0.28,0.49-6.92,4h0Zm0-25.4-0.29-.49,6.92-4,0.28,0.49-6.92,4h0Zm0,5.67-0.29-.49,6.92-4,0.28,0.49-6.92,4h0Zm0,5.68-0.29-.49,6.92-4,0.28,0.49-6.92,4h0Zm0,5.68-0.29-.49,6.92-4,0.28,0.49-6.92,4h0Zm0,5.68-0.29-.49,6.92-4,0.28,0.49-6.92,4h0Zm0-19.86-0.29-.49,6.92-4,0.28,0.49-6.92,4h0Zm0,5.68-0.29-.49,6.92-4,0.28,0.49-6.92,4h0Zm0,5.68-0.29-.49,6.92-4,0.28,0.49-6.92,4h0Zm0,5.67-0.29-.49,6.92-4,0.28,0.49-6.92,4h0Zm0,5.68-0.29-.49,6.92-4,0.28,0.49-6.92,4h0Zm0-25.4-0.29-.49,6.92-4,0.28,0.49-6.92,4h0Zm0,5.68-0.29-.49,6.92-4,0.28,0.49-6.92,4h0Zm0,5.68-0.29-.49,6.92-4,0.28,0.49-6.92,4h0Zm0,5.67-0.29-.49,6.92-4,0.28,0.49-6.92,4h0Zm0,5.68-0.29-.49,6.92-4,0.28,0.49-6.92,4h0Zm0-19.86-0.29-.49,6.92-4,0.28,0.49-6.92,4h0Zm0,5.68-0.29-.49,6.92-4,0.28,0.49-6.92,4h0Zm0,5.68-0.29-.49,6.92-4,0.28,0.49-6.92,4h0Zm0,5.68-0.29-.49,6.92-4,0.28,0.49-6.92,4h0Zm0,5.67-0.29-.49,6.92-4,0.28,0.49-6.92,4h0Zm-9.43-38-0.29-.49,6.92-4,0.29,0.49-6.92,4h0Zm0,5.68-0.29-.49,6.92-4,0.29,0.49-6.92,4h0Zm0,5.68-0.29-.49,6.92-4,0.29,0.49-6.92,4h0Zm0,5.67-0.29-.49,6.92-4,0.29,0.49-6.92,4h0Zm0,5.68-0.29-.49,6.92-4,0.29,0.49-6.92,4h0Zm0-19.86-0.29-.49L144,96l0.29,0.49-6.92,4h0Zm0,5.68-0.29-.49,6.92-4,0.29,0.49-6.92,4h0Zm0,5.68-0.29-.49,6.92-4,0.29,0.49-6.92,4h0Zm0,5.68-0.29-.49,6.92-4,0.29,0.49-6.92,4h0Zm0,5.67-0.29-.49,6.92-4,0.29,0.49-6.92,4h0Zm-0.27-19.73-0.28-.49,6.92-4L144,99.51l-6.92,4h0Zm0,5.68-0.28-.49,6.92-4,0.28,0.49-6.92,4h0Zm0,5.68-0.28-.49,6.92-4,0.28,0.49-6.92,4h0Zm0,5.67-0.28-.49,6.92-4,0.28,0.49-6.92,4h0Zm0,5.68-0.28-.49,6.92-4,0.28,0.49-6.92,4h0Zm0-19.86-0.28-.49,6.92-4,0.28,0.49-6.92,4h0Zm0,5.67-0.28-.49,6.92-4L144,108l-6.92,4h0Zm0,5.68-0.28-.49,6.92-4L144,113.7l-6.92,4h0Zm0,5.68-0.28-.49,6.92-4,0.28,0.49-6.92,4h0Zm0,5.67-0.28-.49,6.92-4L144,125l-6.92,4h0Zm0.27-31.21-0.29-.49,6.92-4,0.29,0.49-6.92,4h0Zm0,5.68-0.29-.49L144,99l0.29,0.49-6.92,4h0Zm0,5.68-0.29-.49,6.92-4,0.29,0.49-6.92,4h0Zm0,5.68-0.29-.49,6.92-4,0.29,0.49-6.92,4h0Zm0,5.67-0.29-.49,6.92-4,0.29,0.49-6.92,4h0Zm0-19.86-0.29-.49,6.92-4,0.29,0.49-6.92,4h0Zm0,5.68-0.29-.49,6.92-4,0.29,0.49-6.92,4h0Zm0,5.67-0.29-.49,6.92-4,0.29,0.49-6.92,4h0Zm0,5.68-0.29-.49,6.92-4,0.29,0.49-6.92,4h0Zm0,5.68-0.29-.49,6.92-4,0.29,0.49-6.92,4h0Zm-0.27-19.73-0.28-.49,6.92-4L144,99.65l-6.92,4h0Zm0,5.68-0.28-.49,6.92-4,0.28,0.49-6.92,4h0Zm0,5.68-0.28-.49,6.92-4L144,111l-6.92,4h0Zm0,5.68-0.28-.49,6.92-4,0.28,0.49-6.92,4h0Zm0,5.67-0.28-.49,6.92-4,0.28,0.49-6.92,4h0Zm0-19.86-0.28-.49,6.92-4,0.28,0.49-6.92,4h0Zm0,5.68-0.28-.49,6.92-4,0.28,0.49-6.92,4h0Zm0,5.67-0.28-.49,6.92-4,0.28,0.49-6.92,4h0Zm0,5.68-0.28-.49,6.92-4,0.28,0.49-6.92,4h0Zm0,5.68-0.28-.49,6.92-4,0.28,0.49-6.92,4h0Zm0.27-31.21-0.29-.49,6.92-4L144.32,94l-6.92,4h0Zm0,5.67-0.29-.49,6.92-4,0.29,0.49-6.92,4h0Zm0,5.68-0.29-.49,6.92-4,0.29,0.49-6.92,4h0Zm0,5.68-0.29-.49,6.92-4,0.29,0.49-6.92,4h0Zm0,5.68-0.29-.49,6.92-4,0.29,0.49-6.92,4h0Zm0-19.86-0.29-.49,6.92-4,0.29,0.49-6.92,4h0Zm0,5.68-0.29-.49,6.92-4,0.29,0.49-6.92,4h0Zm0,5.68-0.29-.49,6.92-4,0.29,0.49-6.92,4h0Zm0,5.67-0.29-.49,6.92-4,0.29,0.49-6.92,4h0Zm0,5.68-0.29-.49,6.92-4,0.29,0.49-6.92,4h0Zm-0.27-19.73-0.28-.49,6.92-4L144,99.78l-6.92,4h0Zm0,5.67-0.28-.49,6.92-4,0.28,0.49-6.92,4h0Zm0,5.68-0.28-.49,6.92-4,0.28,0.49-6.92,4h0Zm0,5.68-0.28-.49,6.92-4,0.28,0.49-6.92,4h0Zm0,5.68-0.28-.49,6.92-4,0.28,0.49-6.92,4h0Zm0-19.86-0.28-.49,6.92-4,0.28,0.49-6.92,4h0Zm0,5.68-0.28-.49,6.92-4L144,108.3l-6.92,4h0Zm0,5.68-0.28-.49,6.92-4L144,114l-6.92,4h0Zm0,5.67-0.28-.49,6.92-4,0.28,0.49-6.92,4h0Zm0,5.68-0.28-.49,6.92-4,0.28,0.49-6.92,4h0Zm0.27-31.21-0.29-.49,6.92-4,0.29,0.49-6.92,4h0Zm0,5.68-0.29-.49,6.92-4,0.29,0.49-6.92,4h0Zm0,5.67-0.29-.49,6.92-4,0.29,0.49-6.92,4h0Zm0,5.68-0.29-.49,6.92-4,0.29,0.49-6.92,4h0Zm0,5.68-0.29-.49,6.92-4,0.29,0.49-6.92,4h0Zm0-19.86-0.29-.49,6.92-4,0.29,0.49-6.92,4h0Zm0,5.68-0.29-.49,6.92-4,0.29,0.49-6.92,4h0Zm0,5.68-0.29-.49,6.92-4,0.29,0.49-6.92,4h0Zm0,5.68-0.29-.49,6.92-4,0.29,0.49-6.92,4h0Zm0,5.67-0.29-.49,6.92-4,0.29,0.49-6.92,4h0Zm-0.27-19.73-0.28-.49,6.92-4L144,99.92l-6.92,4h0Zm0,5.68-0.28-.49,6.92-4,0.28,0.49-6.92,4h0Zm0,5.68-0.28-.49,6.92-4,0.28,0.49-6.92,4h0Zm0,5.67-0.28-.49,6.92-4,0.28,0.49-6.92,4h0Zm0,5.68-0.28-.49,6.92-4,0.28,0.49-6.92,4h0Zm0-19.86-0.28-.49,6.92-4,0.28,0.49-6.92,4h0Zm0,5.68-0.28-.49,6.92-4,0.28,0.49-6.92,4h0Zm0,5.68-0.28-.49,6.92-4,0.28,0.49-6.92,4h0Zm0,5.68-0.28-.49,6.92-4,0.28,0.49-6.92,4h0Zm0,5.67-0.28-.49,6.92-4,0.28,0.49-6.92,4h0Z"/><path class="cls-2" d="M170.29,84.85a24.11,24.11,0,1,0,0,34.6l12.65,12.65a42,42,0,1,1,0-59.9L170.29,84.85h0Z"/><path class="cls-3" d="M129.43,101.93c0,0.08,0,.15,0,0.23a24.09,24.09,0,0,0,40.87,17.3l12.65,12.65a42,42,0,0,1-71.4-29.95c0-.13,0-0.26,0-0.39l17.88,0.17h0Z"/><path class="cls-4" d="M143.1,80.41a24.11,24.11,0,0,0-13.67,21.49l-17.88-.19a42,42,0,0,1,24.14-37.59l7.42,16.28h0Z"/><path class="cls-1" d="M449.29,135.92h7.94V105.28h-7.94v30.64Zm1.09-29.55h5.76v28.46h-5.76V106.37Z"/><path class="cls-1" d="M459,99.93v27.2h8V99.93h-8ZM465.83,126h-5.78V101h5.78v25Z"/><path class="cls-1" d="M439.64,136.15h7.92V93h-7.92v43.2ZM440.73,94h5.74v41h-5.74V94Z"/><path class="cls-1" d="M459.63,104.62l-0.29-.49,6.92-4,0.29,0.49-6.92,4h0Zm0,5.67-0.29-.49,6.92-4,0.29,0.49-6.92,4h0Zm0,5.68-0.29-.49,6.92-4,0.29,0.49-6.92,4h0Zm0,5.68-0.29-.49,6.92-4,0.29,0.49-6.92,4h0Zm0,5.68-0.29-.49,6.92-4,0.29,0.49-6.92,4h0Zm0-19.86-0.29-.49,6.92-4,0.29,0.49-6.92,4h0Zm0,5.68-0.29-.49,6.92-4,0.29,0.49-6.92,4h0Zm0,5.68-0.29-.49,6.92-4,0.29,0.49-6.92,4h0Zm0,5.67-0.29-.49,6.92-4,0.29,0.49-6.92,4h0Zm0,5.68-0.29-.49,6.92-4,0.29,0.49-6.92,4h0Zm0-25.4-0.29-.49,6.92-4,0.29,0.49-6.92,4h0Zm0,5.68-0.29-.49,6.92-4,0.29,0.49-6.92,4h0Zm0,5.67-0.29-.49,6.92-4,0.29,0.49-6.92,4h0Zm0,5.68-0.29-.49,6.92-4,0.29,0.49-6.92,4h0Zm0,5.68-0.29-.49,6.92-4,0.29,0.49-6.92,4h0Zm0-19.86-0.29-.49,6.92-4,0.29,0.49-6.92,4h0Zm0,5.68-0.29-.49,6.92-4,0.29,0.49-6.92,4h0Zm0,5.68-0.29-.49,6.92-4,0.29,0.49-6.92,4h0Zm0,5.68-0.29-.49,6.92-4,0.29,0.49-6.92,4h0Zm0,5.67-0.29-.49,6.92-4,0.29,0.49-6.92,4h0Zm0-25.4-0.29-.49,6.92-4,0.29,0.49-6.92,4h0Zm0,5.68-0.29-.49,6.92-4,0.29,0.49-6.92,4h0Zm0,5.68-0.29-.49,6.92-4,0.29,0.49-6.92,4h0Zm0,5.68-0.29-.49,6.92-4,0.29,0.49-6.92,4h0Zm0,5.67-0.29-.49,6.92-4,0.29,0.49-6.92,4h0Zm0-19.86-0.29-.49,6.92-4,0.29,0.49-6.92,4h0Zm0,5.67-0.29-.49,6.92-4,0.29,0.49-6.92,4h0Zm0,5.68-0.29-.49,6.92-4,0.29,0.49-6.92,4h0Zm0,5.68-0.29-.49,6.92-4,0.29,0.49-6.92,4h0Zm0,5.68-0.29-.49,6.92-4,0.29,0.49-6.92,4h0Zm0-25.4-0.29-.49,6.92-4,0.29,0.49-6.92,4h0Zm0,5.67-0.29-.49,6.92-4,0.29,0.49-6.92,4h0Zm0,5.68-0.29-.49,6.92-4,0.29,0.49-6.92,4h0Zm0,5.68-0.29-.49,6.92-4,0.29,0.49-6.92,4h0Zm0,5.68-0.29-.49,6.92-4,0.29,0.49-6.92,4h0Zm0-19.86-0.29-.49,6.92-4,0.29,0.49-6.92,4h0Zm0,5.68-0.29-.49,6.92-4,0.29,0.49-6.92,4h0Zm0,5.67-0.29-.49,6.92-4,0.29,0.49-6.92,4h0Zm0,5.68-0.29-.49,6.92-4,0.29,0.49-6.92,4h0Zm0,5.68-0.29-.49,6.92-4,0.29,0.49-6.92,4h0Zm-9.71-20.84-0.29-.49,6.92-4,0.28,0.49-6.92,4h0Zm0,5.68-0.29-.49,6.92-4,0.28,0.49-6.92,4h0Zm0,5.68-0.29-.49,6.92-4,0.28,0.49-6.92,4h0Zm0,5.67-0.29-.49,6.92-4,0.28,0.49-6.92,4h0Zm0,5.68-0.29-.49,6.92-4,0.28,0.49-6.92,4h0Zm0-19.86-0.29-.49,6.92-4,0.28,0.49-6.92,4h0Zm0,5.67-0.29-.49,6.92-4,0.28,0.49-6.92,4h0Zm0,5.68-0.29-.49,6.92-4,0.28,0.49-6.92,4h0Zm0,5.68-0.29-.49,6.92-4,0.28,0.49-6.92,4h0Zm0,5.67-0.29-.49,6.92-4,0.28,0.49-6.92,4h0Zm0-25.4-0.29-.49,6.92-4,0.28,0.49-6.92,4h0Zm0,5.68-0.29-.49,6.92-4,0.28,0.49-6.92,4h0Zm0,5.68-0.29-.49,6.92-4,0.28,0.49-6.92,4h0Zm0,5.68-0.29-.49,6.92-4,0.28,0.49-6.92,4h0Zm0,5.67-0.29-.49,6.92-4,0.28,0.49-6.92,4h0Zm0-19.86-0.29-.49,6.92-4,0.28,0.49-6.92,4h0Zm0,5.68-0.29-.49,6.92-4,0.28,0.49-6.92,4h0Zm0,5.67-0.29-.49,6.92-4,0.28,0.49-6.92,4h0Zm0,5.68-0.29-.49,6.92-4,0.28,0.49-6.92,4h0Zm0,5.68-0.29-.49,6.92-4,0.28,0.49-6.92,4h0Zm0-25.4-0.29-.49,6.92-4,0.28,0.49-6.92,4h0Zm0,5.67-0.29-.49,6.92-4,0.28,0.49-6.92,4h0Zm0,5.68-0.29-.49,6.92-4,0.28,0.49-6.92,4h0Zm0,5.68-0.29-.49,6.92-4,0.28,0.49-6.92,4h0Zm0,5.68-0.29-.49,6.92-4,0.28,0.49-6.92,4h0Zm0-19.86-0.29-.49,6.92-4,0.28,0.49-6.92,4h0Zm0,5.68-0.29-.49,6.92-4,0.28,0.49-6.92,4h0Zm0,5.68-0.29-.49,6.92-4,0.28,0.49-6.92,4h0Zm0,5.67-0.29-.49,6.92-4,0.28,0.49-6.92,4h0Zm0,5.68-0.29-.49,6.92-4,0.28,0.49-6.92,4h0Zm0-25.4-0.29-.49,6.92-4,0.28,0.49-6.92,4h0Zm0,5.68-0.29-.49,6.92-4,0.28,0.49-6.92,4h0Zm0,5.68-0.29-.49,6.92-4,0.28,0.49-6.92,4h0Zm0,5.67-0.29-.49,6.92-4,0.28,0.49-6.92,4h0Zm0,5.68-0.29-.49,6.92-4,0.28,0.49-6.92,4h0Zm0-19.86-0.29-.49,6.92-4,0.28,0.49-6.92,4h0Zm0,5.68-0.29-.49,6.92-4,0.28,0.49-6.92,4h0Zm0,5.68-0.29-.49,6.92-4,0.28,0.49-6.92,4h0Zm0,5.68-0.29-.49,6.92-4,0.28,0.49-6.92,4h0Zm0,5.67-0.29-.49,6.92-4,0.28,0.49-6.92,4h0Zm-9.43-38-0.29-.49,6.92-4,0.29,0.49-6.92,4h0Zm0,5.68-0.29-.49,6.92-4,0.29,0.49-6.92,4h0Zm0,5.68-0.29-.49,6.92-4,0.29,0.49-6.92,4h0Zm0,5.67-0.29-.49,6.92-4,0.29,0.49-6.92,4h0Zm0,5.68-0.29-.49,6.92-4,0.29,0.49-6.92,4h0Zm0-19.86L440.2,100l6.92-4,0.29,0.49-6.92,4h0Zm0,5.68-0.29-.49,6.92-4,0.29,0.49-6.92,4h0Zm0,5.68-0.29-.49,6.92-4,0.29,0.49-6.92,4h0Zm0,5.68L440.2,117l6.92-4,0.29,0.49-6.92,4h0Zm0,5.67-0.29-.49,6.92-4,0.29,0.49-6.92,4h0Zm-0.27-19.73-0.28-.49,6.92-4,0.28,0.49-6.92,4h0Zm0,5.68-0.28-.49,6.92-4,0.28,0.49-6.92,4h0Zm0,5.68-0.28-.49,6.92-4,0.28,0.49-6.92,4h0Zm0,5.67-0.28-.49,6.92-4,0.28,0.49-6.92,4h0Zm0,5.68-0.28-.49,6.92-4,0.28,0.49-6.92,4h0Zm0-19.86-0.28-.49,6.92-4,0.28,0.49-6.92,4h0Zm0,5.67-0.28-.49,6.92-4,0.28,0.49-6.92,4h0Zm0,5.68-0.28-.49,6.92-4,0.28,0.49-6.92,4h0Zm0,5.68-0.28-.49,6.92-4,0.28,0.49-6.92,4h0Zm0,5.67-0.28-.49,6.92-4,0.28,0.49-6.92,4h0Zm0.27-31.21-0.29-.49,6.92-4,0.29,0.49-6.92,4h0Zm0,5.68L440.2,103l6.92-4,0.29,0.49-6.92,4h0Zm0,5.68-0.29-.49,6.92-4,0.29,0.49-6.92,4h0Zm0,5.68-0.29-.49,6.92-4,0.29,0.49-6.92,4h0Zm0,5.67L440.2,120l6.92-4,0.29,0.49-6.92,4h0Zm0-19.86-0.29-.49,6.92-4,0.29,0.49-6.92,4h0Zm0,5.68-0.29-.49,6.92-4,0.29,0.49-6.92,4h0Zm0,5.67-0.29-.49,6.92-4,0.29,0.49-6.92,4h0Zm0,5.68-0.29-.49,6.92-4,0.29,0.49-6.92,4h0Zm0,5.68-0.29-.49,6.92-4,0.29,0.49-6.92,4h0Zm-0.27-19.73-0.28-.49,6.92-4,0.28,0.49-6.92,4h0Zm0,5.68-0.28-.49,6.92-4,0.28,0.49-6.92,4h0Zm0,5.68-0.28-.49,6.92-4,0.28,0.49-6.92,4h0Zm0,5.68-0.28-.49,6.92-4,0.28,0.49-6.92,4h0Zm0,5.67-0.28-.49,6.92-4,0.28,0.49-6.92,4h0Zm0-19.86-0.28-.49,6.92-4,0.28,0.49-6.92,4h0Zm0,5.68-0.28-.49,6.92-4,0.28,0.49-6.92,4h0Zm0,5.67-0.28-.49,6.92-4,0.28,0.49-6.92,4h0Zm0,5.68-0.28-.49,6.92-4,0.28,0.49-6.92,4h0Zm0,5.68-0.28-.49,6.92-4,0.28,0.49-6.92,4h0Zm0.27-31.21-0.29-.49,6.92-4L447.41,94l-6.92,4h0Zm0,5.67-0.29-.49,6.92-4,0.29,0.49-6.92,4h0Zm0,5.68-0.29-.49,6.92-4,0.29,0.49-6.92,4h0Zm0,5.68-0.29-.49,6.92-4,0.29,0.49-6.92,4h0Zm0,5.68-0.29-.49,6.92-4,0.29,0.49-6.92,4h0Zm0-19.86-0.29-.49,6.92-4,0.29,0.49-6.92,4h0Zm0,5.68L440.2,106l6.92-4,0.29,0.49-6.92,4h0Zm0,5.68-0.29-.49,6.92-4,0.29,0.49-6.92,4h0Zm0,5.67-0.29-.49,6.92-4,0.29,0.49-6.92,4h0Zm0,5.68L440.2,123l6.92-4,0.29,0.49-6.92,4h0Zm-0.27-19.73-0.28-.49,6.92-4,0.28,0.49-6.92,4h0Zm0,5.67-0.28-.49,6.92-4,0.28,0.49-6.92,4h0Zm0,5.68-0.28-.49,6.92-4,0.28,0.49-6.92,4h0Zm0,5.68-0.28-.49,6.92-4,0.28,0.49-6.92,4h0Zm0,5.68-0.28-.49,6.92-4,0.28,0.49-6.92,4h0Zm0-19.86-0.28-.49,6.92-4,0.28,0.49-6.92,4h0Zm0,5.68-0.28-.49,6.92-4,0.28,0.49-6.92,4h0Zm0,5.68-0.28-.49,6.92-4,0.28,0.49-6.92,4h0Zm0,5.67-0.28-.49,6.92-4,0.28,0.49-6.92,4h0Zm0,5.68-0.28-.49,6.92-4,0.28,0.49-6.92,4h0Zm0.27-31.21-0.29-.49,6.92-4,0.29,0.49-6.92,4h0Zm0,5.68-0.29-.49,6.92-4,0.29,0.49-6.92,4h0Zm0,5.67-0.29-.49,6.92-4,0.29,0.49-6.92,4h0Zm0,5.68-0.29-.49,6.92-4,0.29,0.49-6.92,4h0Zm0,5.68-0.29-.49,6.92-4,0.29,0.49-6.92,4h0Zm0-19.86-0.29-.49,6.92-4,0.29,0.49-6.92,4h0Zm0,5.68-0.29-.49,6.92-4,0.29,0.49-6.92,4h0Zm0,5.68-0.29-.49,6.92-4,0.29,0.49-6.92,4h0Zm0,5.68-0.29-.49,6.92-4,0.29,0.49-6.92,4h0Zm0,5.67-0.29-.49,6.92-4,0.29,0.49-6.92,4h0Zm-0.27-19.73-0.28-.49,6.92-4,0.28,0.49-6.92,4h0Zm0,5.68-0.28-.49,6.92-4,0.28,0.49-6.92,4h0Zm0,5.68-0.28-.49,6.92-4,0.28,0.49-6.92,4h0Zm0,5.67-0.28-.49,6.92-4,0.28,0.49-6.92,4h0Zm0,5.68-0.28-.49,6.92-4,0.28,0.49-6.92,4h0Zm0-19.86-0.28-.49,6.92-4,0.28,0.49-6.92,4h0Zm0,5.68-0.28-.49,6.92-4,0.28,0.49-6.92,4h0Zm0,5.68-0.28-.49,6.92-4,0.28,0.49-6.92,4h0Zm0,5.68-0.28-.49,6.92-4,0.28,0.49-6.92,4h0Zm0,5.67-0.28-.49,6.92-4,0.28,0.49-6.92,4h0Z"/><path class="cls-2" d="M473.39,84.85a24.11,24.11,0,1,0,0,34.6L486,132.1a42,42,0,1,1,0-59.9L473.39,84.85h0Z"/><path class="cls-3" d="M432.52,101.93c0,0.08,0,.15,0,0.23a24.09,24.09,0,0,0,40.87,17.3L486,132.1a42,42,0,0,1-71.4-29.95c0-.13,0-0.26,0-0.39l17.88,0.17h0Z"/><path class="cls-4" d="M446.19,80.41a24.11,24.11,0,0,0-13.67,21.49l-17.88-.19a42,42,0,0,1,24.14-37.59l7.42,16.28h0Z"/><path d="M145.62,334.2h8V303.5h-8v30.7Zm1.09-29.6h5.77v28.51h-5.77V304.6Z"/><path d="M155.31,298.15v27.24h8V298.15h-8Zm6.88,26.15h-5.79V299.24h5.79V324.3Z"/><path d="M136,334.43h7.94V291.16H136v43.28ZM137,292.25h5.75v41.09H137V292.25Z"/><path d="M156,302.84l-0.29-.49,6.93-4,0.29,0.49-6.93,4h0Zm0,5.68-0.29-.49,6.93-4,0.29,0.49-6.93,4h0Zm0,5.68-0.29-.49,6.93-4,0.29,0.49-6.93,4h0Zm0,5.69-0.29-.49,6.93-4,0.29,0.49-6.93,4h0Zm0,5.69-0.29-.49,6.93-4,0.29,0.49-6.93,4h0Zm0-19.9-0.29-.49,6.93-4,0.29,0.49-6.93,4h0Zm0,5.69-0.29-.49,6.93-4,0.29,0.49-6.93,4h0Zm0,5.69-0.29-.49,6.93-4,0.29,0.49-6.93,4h0Zm0,5.68-0.29-.49,6.93-4,0.29,0.49-6.93,4h0Zm0,5.69-0.29-.49,6.93-4,0.29,0.49-6.93,4h0ZM156,303l-0.29-.49,6.93-4,0.29,0.49L156,303h0Zm0,5.68-0.29-.49,6.93-4,0.29,0.49-6.93,4h0Zm0,5.68-0.29-.49,6.93-4,0.29,0.49-6.93,4h0Zm0,5.69-0.29-.49,6.93-4,0.29,0.49L156,320h0Zm0,5.69-0.29-.49,6.93-4,0.29,0.49-6.93,4h0Zm0-19.9-0.29-.49,6.93-4,0.29,0.49-6.93,4h0Zm0,5.69-0.29-.49,6.93-4,0.29,0.49-6.93,4h0Zm0,5.69-0.29-.49,6.93-4,0.29,0.49-6.93,4h0Zm0,5.69-0.29-.49,6.93-4,0.29,0.49-6.93,4h0Zm0,5.68-0.29-.49,6.93-4,0.29,0.49-6.93,4h0Zm0-25.44-0.29-.49,6.93-4,0.29,0.49-6.93,4h0Zm0,5.69-0.29-.49,6.93-4,0.29,0.49-6.93,4h0Zm0,5.69-0.29-.49,6.93-4,0.29,0.49-6.93,4h0Zm0,5.69-0.29-.49,6.93-4,0.29,0.49-6.93,4h0Zm0,5.68-0.29-.49,6.93-4,0.29,0.49-6.93,4h0Zm0-19.9-0.29-.49,6.93-4,0.29,0.49L156,306h0Zm0,5.68-0.29-.49,6.93-4,0.29,0.49-6.93,4h0Zm0,5.69-0.29-.49,6.93-4,0.29,0.49-6.93,4h0Zm0,5.69-0.29-.49,6.93-4,0.29,0.49L156,323h0Zm0,5.69-0.29-.49,6.93-4,0.29,0.49-6.93,4h0Zm0-25.44-0.29-.49,6.93-4,0.29,0.49-6.93,4h0Zm0,5.68-0.29-.49,6.93-4,0.29,0.49-6.93,4h0Zm0,5.69-0.29-.49,6.93-4,0.29,0.49-6.93,4h0Zm0,5.69-0.29-.49,6.93-4,0.29,0.49-6.93,4h0Zm0,5.69-0.29-.49,6.93-4,0.29,0.49L156,326h0Zm0-19.9-0.29-.49,6.93-4,0.29,0.49-6.93,4h0Zm0,5.69-0.29-.49,6.93-4,0.29,0.49-6.93,4h0Zm0,5.68-0.29-.49,6.93-4,0.29,0.49-6.93,4h0Zm0,5.68-0.29-.49,6.93-4,0.29,0.49-6.93,4h0Zm0,5.69-0.29-.49,6.93-4,0.29,0.49-6.93,4h0ZM146.25,308l-0.29-.49,6.94-4,0.29,0.49-6.93,4h0Zm0,5.69-0.29-.49,6.94-4,0.29,0.49-6.93,4h0Zm0,5.68-0.29-.49,6.94-4,0.29,0.49-6.93,4h0Zm0,5.68-0.29-.49,6.94-4,0.29,0.49-6.93,4h0Zm0,5.69L146,330.2l6.94-4,0.29,0.49-6.93,4h0Zm0-19.9-0.29-.49,6.94-4,0.29,0.49-6.93,4h0Zm0,5.68L146,316l6.94-4,0.29,0.49-6.93,4h0Zm0,5.69-0.29-.49,6.94-4,0.29,0.49-6.93,4h0Zm0,5.69-0.29-.49,6.94-4,0.29,0.49-6.93,4h0Zm0,5.68L146,333l6.94-4,0.29,0.49-6.93,4h0Zm0-25.44L146,307.6l6.94-4,0.29,0.49-6.93,4h0Zm0,5.69-0.29-.49,6.94-4,0.29,0.49-6.93,4h0Zm0,5.69L146,319l6.94-4,0.29,0.49-6.93,4h0Zm0,5.69-0.29-.49,6.94-4,0.29,0.49-6.93,4h0Zm0,5.68-0.29-.49,6.94-4,0.29,0.49-6.93,4h0Zm0-19.9-0.29-.49,6.94-4,0.29,0.49-6.93,4h0Zm0,5.69-0.29-.49,6.94-4,0.29,0.49-6.93,4h0Zm0,5.68-0.29-.49,6.94-4,0.29,0.49-6.93,4h0Zm0,5.69L146,327.5l6.94-4,0.29,0.49-6.93,4h0Zm0,5.69-0.29-.49,6.94-4,0.29,0.49-6.93,4h0Zm0-25.44-0.29-.49,6.94-4,0.29,0.49-6.93,4h0Zm0,5.68-0.29-.49,6.94-4,0.29,0.49-6.93,4h0Zm0,5.69-0.29-.49,6.94-4,0.29,0.49-6.93,4h0Zm0,5.69-0.29-.49,6.94-4,0.29,0.49-6.93,4h0Zm0,5.69-0.29-.49,6.94-4,0.29,0.49-6.93,4h0Zm0-19.9-0.29-.49,6.94-4,0.29,0.49-6.93,4h0Zm0,5.69-0.29-.49,6.94-4,0.29,0.49-6.93,4h0Zm0,5.69L146,322l6.94-4,0.29,0.49-6.93,4h0Zm0,5.68-0.29-.49,6.94-4,0.29,0.49-6.93,4h0Zm0,5.68-0.29-.49,6.94-4,0.29,0.49-6.93,4h0Zm0-25.44-0.29-.49,6.94-4,0.29,0.49-6.93,4h0Zm0,5.69-0.29-.49,6.94-4,0.29,0.49-6.93,4h0Zm0,5.69-0.29-.49,6.94-4,0.29,0.49-6.93,4h0Zm0,5.68-0.29-.49,6.94-4,0.29,0.49-6.93,4h0Zm0,5.69-0.29-.49,6.94-4,0.29,0.49-6.93,4h0Zm0-19.9-0.29-.49,6.94-4,0.29,0.49-6.93,4h0Zm0,5.69L146,316.4l6.94-4,0.29,0.49-6.93,4h0Zm0,5.68-0.29-.49,6.94-4,0.29,0.49-6.93,4h0Zm0,5.69-0.29-.49,6.94-4,0.29,0.49-6.93,4h0Zm0,5.68-0.29-.49,6.94-4,0.29,0.49-6.93,4h0Zm-9.45-38.07-0.29-.49,6.93-4,0.29,0.49-6.93,4h0Zm0,5.69-0.29-.49,6.93-4,0.29,0.49-6.93,4h0Zm0,5.69-0.29-.49,6.93-4,0.29,0.49-6.93,4h0Zm0,5.68-0.29-.49,6.93-4,0.29,0.49-6.93,4h0Zm0,5.69-0.29-.49,6.93-4,0.29,0.49-6.93,4h0Zm0-19.9-0.29-.49,6.93-4,0.29,0.49-6.93,4h0Zm0,5.69-0.29-.49,6.93-4,0.29,0.49-6.93,4h0Zm0,5.69-0.29-.49,6.93-4,0.29,0.49-6.93,4h0Zm0,5.69-0.29-.49,6.93-4,0.29,0.49-6.93,4h0Zm0,5.68-0.29-.49,6.93-4,0.29,0.49-6.93,4h0Zm-0.27-19.76-0.29-.49,6.93-4,0.29,0.49-6.93,4h0Zm0,5.69-0.29-.49,6.93-4,0.29,0.49-6.93,4h0Zm0,5.69-0.29-.49,6.93-4,0.29,0.49-6.93,4h0Zm0,5.68-0.29-.49,6.93-4,0.29,0.49-6.93,4h0Zm0,5.69-0.29-.49,6.93-4,0.29,0.49-6.93,4h0Zm0-19.9-0.29-.49,6.93-4,0.29,0.49-6.93,4h0Zm0,5.68-0.29-.49,6.93-4,0.29,0.49-6.93,4h0Zm0,5.69-0.29-.49,6.93-4,0.29,0.49-6.93,4h0Zm0,5.69-0.29-.49,6.93-4,0.29,0.49-6.93,4h0Zm0,5.68-0.29-.49,6.93-4,0.29,0.49-6.93,4h0ZM136.8,296l-0.29-.49,6.93-4,0.29,0.49-6.93,4h0Zm0,5.68-0.29-.49,6.93-4,0.29,0.49-6.93,4h0Zm0,5.69-0.29-.49,6.93-4,0.29,0.49-6.93,4h0Zm0,5.69-0.29-.49,6.93-4,0.29,0.49-6.93,4h0Zm0,5.68-0.29-.49,6.93-4,0.29,0.49-6.93,4h0Zm0-19.9-0.29-.49,6.93-4,0.29,0.49-6.93,4h0Zm0,5.69-0.29-.49,6.93-4,0.29,0.49-6.93,4h0Zm0,5.68-0.29-.49,6.93-4,0.29,0.49-6.93,4h0Zm0,5.69-0.29-.49,6.93-4,0.29,0.49-6.93,4h0Zm0,5.69-0.29-.49,6.93-4,0.29,0.49-6.93,4h0Zm-0.27-19.76-0.29-.49,6.93-4,0.29,0.49-6.93,4h0Zm0,5.69-0.29-.49,6.93-4,0.29,0.49-6.93,4h0Zm0,5.69-0.29-.49,6.93-4,0.29,0.49-6.93,4h0Zm0,5.69-0.29-.49,6.93-4,0.29,0.49-6.93,4h0Zm0,5.68-0.29-.49,6.93-4,0.29,0.49-6.93,4h0Zm0-19.9-0.29-.49,6.93-4,0.29,0.49-6.93,4h0Zm0,5.69-0.29-.49,6.93-4,0.29,0.49-6.93,4h0Zm0,5.68-0.29-.49,6.93-4,0.29,0.49-6.93,4h0Zm0,5.69-0.29-.49,6.93-4,0.29,0.49-6.93,4h0Zm0,5.69-0.29-.49,6.93-4,0.29,0.49-6.93,4h0Zm0.27-31.27-0.29-.49,6.93-4,0.29,0.49-6.93,4h0Zm0,5.68-0.29-.49,6.93-4,0.29,0.49-6.93,4h0Zm0,5.69-0.29-.49,6.93-4,0.29,0.49-6.93,4h0Zm0,5.69-0.29-.49,6.93-4,0.29,0.49-6.93,4h0Zm0,5.69-0.29-.49,6.93-4,0.29,0.49-6.93,4h0Zm0-19.9-0.29-.49,6.93-4,0.29,0.49-6.93,4h0Zm0,5.69-0.29-.49,6.93-4,0.29,0.49-6.93,4h0Zm0,5.69-0.29-.49,6.93-4,0.29,0.49-6.93,4h0Zm0,5.68-0.29-.49,6.93-4,0.29,0.49-6.93,4h0Zm0,5.69-0.29-.49,6.93-4,0.29,0.49-6.93,4h0ZM136.53,302l-0.29-.49,6.93-4,0.29,0.49-6.93,4h0Zm0,5.68-0.29-.49,6.93-4,0.29,0.49-6.93,4h0Zm0,5.68-0.29-.49,6.93-4,0.29,0.49-6.93,4h0Zm0,5.69-0.29-.49,6.93-4,0.29,0.49-6.93,4h0Zm0,5.69-0.29-.49,6.93-4,0.29,0.49-6.93,4h0Zm0-19.9-0.29-.49,6.93-4,0.29,0.49-6.93,4h0Zm0,5.69-0.29-.49,6.93-4,0.29,0.49-6.93,4h0Zm0,5.69-0.29-.49,6.93-4,0.29,0.49-6.93,4h0Zm0,5.68-0.29-.49,6.93-4,0.29,0.49-6.93,4h0Zm0,5.69-0.29-.49,6.93-4,0.29,0.49-6.93,4h0Zm0.27-31.27-0.29-.49,6.93-4,0.29,0.49-6.93,4h0Zm0,5.69-0.29-.49,6.93-4,0.29,0.49-6.93,4h0Zm0,5.68-0.29-.49,6.93-4,0.29,0.49-6.93,4h0Zm0,5.68-0.29-.49,6.93-4,0.29,0.49-6.93,4h0Zm0,5.69-0.29-.49,6.93-4,0.29,0.49-6.93,4h0Zm0-19.9-0.29-.49,6.93-4,0.29,0.49-6.93,4h0Zm0,5.69-0.29-.49,6.93-4,0.29,0.49-6.93,4h0Zm0,5.69-0.29-.49,6.93-4,0.29,0.49-6.93,4h0Zm0,5.69-0.29-.49,6.93-4,0.29,0.49-6.93,4h0Zm0,5.68-0.29-.49,6.93-4,0.29,0.49-6.93,4h0Zm-0.27-19.76-0.29-.49,6.93-4,0.29,0.49-6.93,4h0Zm0,5.68-0.29-.49,6.93-4,0.29,0.49-6.93,4h0Zm0,5.69-0.29-.49,6.93-4,0.29,0.49-6.93,4h0Zm0,5.68-0.29-.49,6.93-4,0.29,0.49-6.93,4h0Zm0,5.69-0.29-.49,6.93-4,0.29,0.49-6.93,4h0Zm0-19.9-0.29-.49,6.93-4,0.29,0.49-6.93,4h0Zm0,5.69-0.29-.49,6.93-4,0.29,0.49-6.93,4h0Zm0,5.69-0.29-.49,6.93-4,0.29,0.49-6.93,4h0Zm0,5.69-0.29-.49,6.93-4,0.29,0.49-6.93,4h0Zm0,5.68-0.29-.49,6.93-4,0.29,0.49-6.93,4h0Z"/><path class="cls-5" d="M169.76,283a24.15,24.15,0,1,0,0,34.66l12.67,12.67a42.06,42.06,0,1,1,0-60L169.76,283h0Z"/><path class="cls-5" d="M128.82,300.15c0,0.08,0,.15,0,0.23a24.13,24.13,0,0,0,40.94,17.33l12.67,12.67a42,42,0,0,1-71.53-30c0-.13,0-0.26,0-0.39l17.91,0.17h0Z"/><path class="cls-5" d="M142.52,278.6a24.15,24.15,0,0,0-13.69,21.53l-17.91-.19a42.07,42.07,0,0,1,24.18-37.65l7.43,16.31h0Z"/><line class="cls-6" x1="110.9" y1="300.37" x2="128.97" y2="300.37"/><line class="cls-6" x1="135.09" y1="262.29" x2="142.52" y2="278.6"/><path class="cls-7" d="M452.21,334.2h8V303.5h-8v30.7Zm1.09-29.6h5.77v28.51H453.3V304.6Z"/><path class="cls-7" d="M461.9,298.15v27.24h8V298.15h-8Zm6.88,26.15H463V299.24h5.79V324.3Z"/><path class="cls-7" d="M442.55,334.43h7.94V291.16h-7.94v43.28Zm1.09-42.18h5.75v41.09h-5.75V292.25Z"/><path class="cls-7" d="M462.56,302.84l-0.29-.49,6.93-4,0.29,0.49-6.93,4h0Zm0,5.68-0.29-.49,6.93-4,0.29,0.49-6.93,4h0Zm0,5.68-0.29-.49,6.93-4,0.29,0.49-6.93,4h0Zm0,5.69-0.29-.49,6.93-4,0.29,0.49-6.93,4h0Zm0,5.69-0.29-.49,6.93-4,0.29,0.49-6.93,4h0Zm0-19.9-0.29-.49,6.93-4,0.29,0.49-6.93,4h0Zm0,5.69-0.29-.49,6.93-4,0.29,0.49-6.93,4h0Zm0,5.69-0.29-.49,6.93-4,0.29,0.49-6.93,4h0Zm0,5.68-0.29-.49,6.93-4,0.29,0.49-6.93,4h0Zm0,5.69-0.29-.49,6.93-4,0.29,0.49-6.93,4h0Zm0-25.44-0.29-.49,6.93-4L469.5,299l-6.93,4h0Zm0,5.68-0.29-.49,6.93-4,0.29,0.49-6.93,4h0Zm0,5.68-0.29-.49,6.93-4,0.29,0.49-6.93,4h0Zm0,5.69-0.29-.49,6.93-4,0.29,0.49-6.93,4h0Zm0,5.69-0.29-.49,6.93-4,0.29,0.49-6.93,4h0Zm0-19.9-0.29-.49,6.93-4,0.29,0.49-6.93,4h0Zm0,5.69-0.29-.49,6.93-4,0.29,0.49-6.93,4h0Zm0,5.69-0.29-.49,6.93-4,0.29,0.49-6.93,4h0Zm0,5.69-0.29-.49,6.93-4,0.29,0.49-6.93,4h0Zm0,5.68-0.29-.49,6.93-4,0.29,0.49-6.93,4h0Zm0-25.44-0.29-.49,6.93-4,0.29,0.49-6.93,4h0Zm0,5.69-0.29-.49,6.93-4,0.29,0.49-6.93,4h0Zm0,5.69-0.29-.49,6.93-4,0.29,0.49-6.93,4h0Zm0,5.69-0.29-.49,6.93-4,0.29,0.49-6.93,4h0Zm0,5.68-0.29-.49,6.93-4,0.29,0.49-6.93,4h0Zm0-19.9-0.29-.49,6.93-4L469.5,302l-6.93,4h0Zm0,5.68-0.29-.49,6.93-4,0.29,0.49-6.93,4h0Zm0,5.69-0.29-.49,6.93-4,0.29,0.49-6.93,4h0Zm0,5.69-0.29-.49,6.93-4L469.5,319l-6.93,4h0Zm0,5.69-0.29-.49,6.93-4,0.29,0.49-6.93,4h0Zm0-25.44-0.29-.49,6.93-4,0.29,0.49-6.93,4h0Zm0,5.68-0.29-.49,6.93-4L469.5,305l-6.93,4h0Zm0,5.69-0.29-.49,6.93-4,0.29,0.49-6.93,4h0Zm0,5.69-0.29-.49,6.93-4,0.29,0.49-6.93,4h0Zm0,5.69-0.29-.49,6.93-4L469.5,322l-6.93,4h0Zm0-19.9-0.29-.49,6.93-4,0.29,0.49-6.93,4h0Zm0,5.69-0.29-.49,6.93-4,0.29,0.49-6.93,4h0Zm0,5.68-0.29-.49,6.93-4,0.29,0.49-6.93,4h0Zm0,5.68-0.29-.49,6.93-4,0.29,0.49-6.93,4h0Zm0,5.69-0.29-.49,6.93-4,0.29,0.49-6.93,4h0ZM452.84,308l-0.29-.49,6.94-4,0.29,0.49-6.93,4h0Zm0,5.69-0.29-.49,6.94-4,0.29,0.49-6.93,4h0Zm0,5.68-0.29-.49,6.94-4,0.29,0.49-6.93,4h0Zm0,5.68-0.29-.49,6.94-4,0.29,0.49-6.93,4h0Zm0,5.69-0.29-.49,6.94-4,0.29,0.49-6.93,4h0Zm0-19.9-0.29-.49,6.94-4,0.29,0.49-6.93,4h0Zm0,5.68-0.29-.49,6.94-4,0.29,0.49-6.93,4h0Zm0,5.69-0.29-.49,6.94-4,0.29,0.49-6.93,4h0Zm0,5.69-0.29-.49,6.94-4,0.29,0.49-6.93,4h0Zm0,5.68-0.29-.49,6.94-4,0.29,0.49-6.93,4h0Zm0-25.44-0.29-.49,6.94-4,0.29,0.49-6.93,4h0Zm0,5.69-0.29-.49,6.94-4,0.29,0.49-6.93,4h0Zm0,5.69-0.29-.49,6.94-4,0.29,0.49-6.93,4h0Zm0,5.69-0.29-.49,6.94-4,0.29,0.49-6.93,4h0Zm0,5.68-0.29-.49,6.94-4,0.29,0.49-6.93,4h0Zm0-19.9-0.29-.49,6.94-4,0.29,0.49-6.93,4h0Zm0,5.69-0.29-.49,6.94-4,0.29,0.49-6.93,4h0Zm0,5.68-0.29-.49,6.94-4,0.29,0.49-6.93,4h0Zm0,5.69-0.29-.49,6.94-4,0.29,0.49-6.93,4h0Zm0,5.69-0.29-.49,6.94-4,0.29,0.49-6.93,4h0Zm0-25.44-0.29-.49,6.94-4,0.29,0.49-6.93,4h0Zm0,5.68-0.29-.49,6.94-4,0.29,0.49-6.93,4h0Zm0,5.69-0.29-.49,6.94-4,0.29,0.49-6.93,4h0Zm0,5.69-0.29-.49,6.94-4,0.29,0.49-6.93,4h0Zm0,5.69-0.29-.49,6.94-4,0.29,0.49-6.93,4h0Zm0-19.9-0.29-.49,6.94-4,0.29,0.49-6.93,4h0Zm0,5.69-0.29-.49,6.94-4,0.29,0.49-6.93,4h0Zm0,5.69-0.29-.49,6.94-4,0.29,0.49-6.93,4h0Zm0,5.68-0.29-.49,6.94-4,0.29,0.49-6.93,4h0Zm0,5.68-0.29-.49,6.94-4,0.29,0.49-6.93,4h0Zm0-25.44-0.29-.49,6.94-4,0.29,0.49-6.93,4h0Zm0,5.69-0.29-.49,6.94-4,0.29,0.49-6.93,4h0Zm0,5.69-0.29-.49,6.94-4,0.29,0.49-6.93,4h0Zm0,5.68-0.29-.49,6.94-4,0.29,0.49-6.93,4h0Zm0,5.69-0.29-.49,6.94-4,0.29,0.49-6.93,4h0Zm0-19.9-0.29-.49,6.94-4,0.29,0.49-6.93,4h0Zm0,5.69-0.29-.49,6.94-4,0.29,0.49-6.93,4h0Zm0,5.68-0.29-.49,6.94-4,0.29,0.49-6.93,4h0Zm0,5.69-0.29-.49,6.94-4,0.29,0.49-6.93,4h0Zm0,5.68-0.29-.49,6.94-4,0.29,0.49-6.93,4h0Zm-9.45-38.07-0.29-.49,6.93-4,0.29,0.49-6.93,4h0Zm0,5.69-0.29-.49,6.93-4,0.29,0.49-6.93,4h0Zm0,5.69-0.29-.49,6.93-4,0.29,0.49-6.93,4h0Zm0,5.68-0.29-.49,6.93-4,0.29,0.49-6.93,4h0Zm0,5.69-0.29-.49,6.93-4,0.29,0.49-6.93,4h0Zm0-19.9-0.29-.49,6.93-4,0.29,0.49-6.93,4h0Zm0,5.69-0.29-.49,6.93-4,0.29,0.49-6.93,4h0Zm0,5.69-0.29-.49,6.93-4,0.29,0.49-6.93,4h0Zm0,5.69-0.29-.49,6.93-4,0.29,0.49-6.93,4h0Zm0,5.68L443.1,321l6.93-4,0.29,0.49-6.93,4h0Zm-0.27-19.76-0.29-.49,6.93-4,0.29,0.49-6.93,4h0Zm0,5.69-0.29-.49,6.93-4,0.29,0.49-6.93,4h0Zm0,5.69-0.29-.49,6.93-4,0.29,0.49-6.93,4h0Zm0,5.68-0.29-.49,6.93-4,0.29,0.49-6.93,4h0Zm0,5.69-0.29-.49,6.93-4,0.29,0.49-6.93,4h0Zm0-19.9-0.29-.49,6.93-4,0.29,0.49-6.93,4h0Zm0,5.68-0.29-.49,6.93-4,0.29,0.49-6.93,4h0Zm0,5.69-0.29-.49,6.93-4,0.29,0.49-6.93,4h0Zm0,5.69-0.29-.49,6.93-4,0.29,0.49-6.93,4h0Zm0,5.68-0.29-.49,6.93-4,0.29,0.49-6.93,4h0ZM443.39,296l-0.29-.49,6.93-4,0.29,0.49-6.93,4h0Zm0,5.68-0.29-.49,6.93-4,0.29,0.49-6.93,4h0Zm0,5.69-0.29-.49,6.93-4,0.29,0.49-6.93,4h0Zm0,5.69-0.29-.49,6.93-4,0.29,0.49-6.93,4h0Zm0,5.68-0.29-.49,6.93-4,0.29,0.49-6.93,4h0Zm0-19.9-0.29-.49,6.93-4,0.29,0.49-6.93,4h0Zm0,5.69-0.29-.49,6.93-4,0.29,0.49-6.93,4h0Zm0,5.68-0.29-.49,6.93-4,0.29,0.49-6.93,4h0Zm0,5.69-0.29-.49,6.93-4,0.29,0.49-6.93,4h0Zm0,5.69-0.29-.49,6.93-4,0.29,0.49-6.93,4h0Zm-0.27-19.76-0.29-.49,6.93-4,0.29,0.49-6.93,4h0Zm0,5.69-0.29-.49,6.93-4,0.29,0.49-6.93,4h0Zm0,5.69-0.29-.49,6.93-4,0.29,0.49-6.93,4h0Zm0,5.69-0.29-.49,6.93-4,0.29,0.49-6.93,4h0Zm0,5.68-0.29-.49,6.93-4,0.29,0.49-6.93,4h0Zm0-19.9-0.29-.49,6.93-4,0.29,0.49-6.93,4h0Zm0,5.69-0.29-.49,6.93-4,0.29,0.49-6.93,4h0Zm0,5.68-0.29-.49,6.93-4,0.29,0.49-6.93,4h0Zm0,5.69-0.29-.49,6.93-4,0.29,0.49-6.93,4h0Zm0,5.69-0.29-.49,6.93-4,0.29,0.49-6.93,4h0Zm0.27-31.27-0.29-.49,6.93-4,0.29,0.49-6.93,4h0Zm0,5.68-0.29-.49,6.93-4,0.29,0.49-6.93,4h0Zm0,5.69L443.1,307l6.93-4,0.29,0.49-6.93,4h0Zm0,5.69-0.29-.49,6.93-4,0.29,0.49-6.93,4h0Zm0,5.69-0.29-.49,6.93-4,0.29,0.49-6.93,4h0Zm0-19.9-0.29-.49,6.93-4,0.29,0.49-6.93,4h0Zm0,5.69-0.29-.49,6.93-4,0.29,0.49-6.93,4h0Zm0,5.69-0.29-.49,6.93-4,0.29,0.49-6.93,4h0Zm0,5.68-0.29-.49,6.93-4,0.29,0.49-6.93,4h0Zm0,5.69-0.29-.49,6.93-4,0.29,0.49-6.93,4h0ZM443.12,302l-0.29-.49,6.93-4,0.29,0.49-6.93,4h0Zm0,5.68-0.29-.49,6.93-4,0.29,0.49-6.93,4h0Zm0,5.68-0.29-.49,6.93-4,0.29,0.49-6.93,4h0Zm0,5.69-0.29-.49,6.93-4,0.29,0.49-6.93,4h0Zm0,5.69-0.29-.49,6.93-4,0.29,0.49-6.93,4h0Zm0-19.9-0.29-.49,6.93-4,0.29,0.49-6.93,4h0Zm0,5.69-0.29-.49,6.93-4,0.29,0.49-6.93,4h0Zm0,5.69-0.29-.49,6.93-4,0.29,0.49-6.93,4h0Zm0,5.68-0.29-.49,6.93-4,0.29,0.49-6.93,4h0Zm0,5.69-0.29-.49,6.93-4,0.29,0.49-6.93,4h0Zm0.27-31.27-0.29-.49,6.93-4,0.29,0.49-6.93,4h0Zm0,5.69-0.29-.49,6.93-4,0.29,0.49-6.93,4h0Zm0,5.68-0.29-.49,6.93-4,0.29,0.49-6.93,4h0Zm0,5.68-0.29-.49,6.93-4,0.29,0.49-6.93,4h0Zm0,5.69-0.29-.49,6.93-4,0.29,0.49-6.93,4h0Zm0-19.9-0.29-.49,6.93-4,0.29,0.49-6.93,4h0Zm0,5.69-0.29-.49,6.93-4,0.29,0.49-6.93,4h0Zm0,5.69L443.1,310l6.93-4,0.29,0.49-6.93,4h0Zm0,5.69-0.29-.49,6.93-4,0.29,0.49-6.93,4h0Zm0,5.68-0.29-.49,6.93-4,0.29,0.49-6.93,4h0Zm-0.27-19.76-0.29-.49,6.93-4,0.29,0.49-6.93,4h0Zm0,5.68-0.29-.49,6.93-4,0.29,0.49-6.93,4h0Zm0,5.69-0.29-.49,6.93-4,0.29,0.49-6.93,4h0Zm0,5.68-0.29-.49,6.93-4,0.29,0.49-6.93,4h0Zm0,5.69-0.29-.49,6.93-4,0.29,0.49-6.93,4h0Zm0-19.9-0.29-.49,6.93-4,0.29,0.49-6.93,4h0Zm0,5.69-0.29-.49,6.93-4,0.29,0.49-6.93,4h0Zm0,5.69-0.29-.49,6.93-4,0.29,0.49-6.93,4h0Zm0,5.69-0.29-.49,6.93-4,0.29,0.49-6.93,4h0Zm0,5.68-0.29-.49,6.93-4,0.29,0.49-6.93,4h0Z"/><path class="cls-8" d="M476.35,283a24.15,24.15,0,1,0,0,34.66L489,330.37a42.06,42.06,0,1,1,0-60L476.35,283h0Z"/><path class="cls-8" d="M435.41,300.15c0,0.08,0,.15,0,0.23a24.13,24.13,0,0,0,40.94,17.33L489,330.37a42,42,0,0,1-71.53-30c0-.13,0-0.26,0-0.39l17.91,0.17h0Z"/><path class="cls-8" d="M449.11,278.6a24.15,24.15,0,0,0-13.69,21.53l-17.91-.19a42.07,42.07,0,0,1,24.18-37.65l7.43,16.31h0Z"/><line class="cls-9" x1="417.49" y1="300.37" x2="435.56" y2="300.37"/><line class="cls-9" x1="441.68" y1="262.29" x2="449.11" y2="278.6"/></svg>