<svg id="Layer_1" data-name="Layer 1" xmlns="http://www.w3.org/2000/svg" xmlns:xlink="http://www.w3.org/1999/xlink" viewBox="0 0 600 400"><defs><style>.cls-1,.cls-4{fill:#d29334;}.cls-2{fill:url(#linear-gradient);}.cls-3{fill:#00b091;}.cls-3,.cls-4,.cls-5{fill-rule:evenodd;}.cls-5{fill:#147ed0;}.cls-6{fill:#fdfdff;}</style><linearGradient id="linear-gradient" x1="321.55" y1="220.3" x2="321.55" y2="174.17" gradientUnits="userSpaceOnUse"><stop offset="0" stop-color="#d29334"/><stop offset="1" stop-color="#eab258"/></linearGradient></defs><title>final</title><path class="cls-1" d="M106.39,216.27h4.51v-17.4h-4.51v17.4ZM107,199.49h3.27v16.17H107V199.49Z"/><path class="cls-1" d="M111.89,195.83v15.45h4.52V195.83h-4.52Zm3.9,14.83h-3.28V196.45h3.28v14.21Z"/><path class="cls-1" d="M100.91,216.4h4.5V191.87h-4.5V216.4Zm0.62-23.92h3.26v23.3h-3.26v-23.3Z"/><path class="cls-1" d="M112.26,198.49l-0.16-.28L116,196l0.16,0.28-3.93,2.26h0Zm0,3.22-0.16-.28,3.93-2.26,0.16,0.28-3.93,2.26h0Zm0,3.22-0.16-.28L116,202.4l0.16,0.28-3.93,2.26h0Zm0,3.22-0.16-.28,3.93-2.26,0.16,0.28-3.93,2.26h0Zm0,3.22-0.16-.28,3.93-2.26,0.16,0.28-3.93,2.26h0Zm0-11.28-0.16-.28,3.93-2.26,0.16,0.28-3.93,2.26h0Zm0,3.22L112.1,203l3.93-2.26,0.16,0.28-3.93,2.26h0Zm0,3.22-0.16-.28L116,204l0.16,0.28-3.93,2.26h0Zm0,3.22-0.16-.28,3.93-2.26,0.16,0.28-3.93,2.26h0Zm0,3.22-0.16-.28,3.93-2.26,0.16,0.28L112.26,213h0Zm0-14.43-0.16-.28L116,196l0.16,0.28-3.93,2.26h0Zm0,3.22-0.16-.28,3.93-2.26,0.16,0.28-3.93,2.26h0Zm0,3.22-0.16-.28,3.93-2.26,0.16,0.28L112.26,205h0Zm0,3.22L112.1,208,116,205.7l0.16,0.28-3.93,2.26h0Zm0,3.22-0.16-.28,3.93-2.26,0.16,0.28-3.93,2.26h0Zm0-11.28-0.16-.28,3.93-2.26,0.16,0.28-3.93,2.26h0Zm0,3.22-0.16-.28,3.93-2.26,0.16,0.28-3.93,2.26h0Zm0,3.22-0.16-.28,3.93-2.26,0.16,0.28-3.93,2.26h0Zm0,3.22-0.16-.28,3.93-2.26,0.16,0.28-3.93,2.26h0Zm0,3.22-0.16-.28,3.93-2.26,0.16,0.28-3.93,2.26h0Zm0-14.43-0.16-.28,3.93-2.26,0.16,0.28-3.93,2.26h0Zm0,3.22-0.16-.28,3.93-2.26,0.16,0.28-3.93,2.26h0Zm0,3.22-0.16-.28,3.93-2.26,0.16,0.28-3.93,2.26h0Zm0,3.22L112.1,208l3.93-2.26,0.16,0.28-3.93,2.26h0Zm0,3.22-0.16-.28L116,209l0.16,0.28-3.93,2.26h0Zm0-11.28L112.1,200l3.93-2.26,0.16,0.28-3.93,2.26h0Zm0,3.22-0.16-.28,3.93-2.26,0.16,0.28-3.93,2.26h0Zm0,3.22-0.16-.28,3.93-2.26,0.16,0.28-3.93,2.26h0Zm0,3.22-0.16-.28,3.93-2.26,0.16,0.28-3.93,2.26h0Zm0,3.22-0.16-.28,3.93-2.26,0.16,0.28-3.93,2.26h0Zm0-14.43-0.16-.28,3.93-2.26,0.16,0.28-3.93,2.26h0Zm0,3.22-0.16-.28,3.93-2.26,0.16,0.28-3.93,2.26h0Zm0,3.22-0.16-.28,3.93-2.26,0.16,0.28-3.93,2.26h0Zm0,3.22-0.16-.28,3.93-2.26,0.16,0.28-3.93,2.26h0Zm0,3.22-0.16-.28,3.93-2.26,0.16,0.28-3.93,2.26h0Zm0-11.28-0.16-.28L116,197.8l0.16,0.28-3.93,2.26h0Zm0,3.22-0.16-.28L116,201l0.16,0.28-3.93,2.26h0Zm0,3.22-0.16-.28,3.93-2.26,0.16,0.28-3.93,2.26h0Zm0,3.22-0.16-.28,3.93-2.26,0.16,0.28L112.26,210h0Zm0,3.22L112.1,213l3.93-2.26,0.16,0.28-3.93,2.26h0Zm-5.51-11.84-0.16-.28,3.93-2.26,0.16,0.28-3.93,2.26h0Zm0,3.22-0.16-.28,3.93-2.26,0.16,0.28-3.93,2.26h0Zm0,3.22-0.16-.28,3.93-2.26,0.16,0.28-3.93,2.26h0Zm0,3.22-0.16-.28,3.93-2.26,0.16,0.28-3.93,2.26h0Zm0,3.22-0.16-.28,3.93-2.26,0.16,0.28-3.93,2.26h0Zm0-11.28-0.16-.28,3.93-2.26,0.16,0.28L106.75,203h0Zm0,3.22-0.16-.28,3.93-2.26,0.16,0.28-3.93,2.26h0Zm0,3.22-0.16-.28,3.93-2.26,0.16,0.28-3.93,2.26h0Zm0,3.22-0.16-.28,3.93-2.26,0.16,0.28-3.93,2.26h0Zm0,3.22-0.16-.28,3.93-2.26,0.16,0.28-3.93,2.26h0Zm0-14.43-0.16-.28,3.93-2.26,0.16,0.28-3.93,2.26h0Zm0,3.22-0.16-.28,3.93-2.26,0.16,0.28-3.93,2.26h0Zm0,3.22-0.16-.28,3.93-2.26,0.16,0.28-3.93,2.26h0Zm0,3.22-0.16-.28,3.93-2.26,0.16,0.28-3.93,2.26h0Zm0,3.22-0.16-.28,3.93-2.26,0.16,0.28-3.93,2.26h0Zm0-11.28-0.16-.28,3.93-2.26,0.16,0.28-3.93,2.26h0Zm0,3.22-0.16-.28,3.93-2.26,0.16,0.28-3.93,2.26h0Zm0,3.22-0.16-.28,3.93-2.26,0.16,0.28-3.93,2.26h0Zm0,3.22-0.16-.28,3.93-2.26,0.16,0.28-3.93,2.26h0Zm0,3.22-0.16-.28,3.93-2.26,0.16,0.28L106.75,216h0Zm0-14.43-0.16-.28,3.93-2.26,0.16,0.28-3.93,2.26h0Zm0,3.22-0.16-.28,3.93-2.26,0.16,0.28-3.93,2.26h0Zm0,3.22-0.16-.28,3.93-2.26,0.16,0.28L106.75,208h0Zm0,3.22-0.16-.28,3.93-2.26,0.16,0.28-3.93,2.26h0Zm0,3.22-0.16-.28,3.93-2.26,0.16,0.28-3.93,2.26h0Zm0-11.28-0.16-.28,3.93-2.26,0.16,0.28-3.93,2.26h0Zm0,3.22-0.16-.28,3.93-2.26,0.16,0.28-3.93,2.26h0Zm0,3.22-0.16-.28,3.93-2.26,0.16,0.28-3.93,2.26h0Zm0,3.22-0.16-.28,3.93-2.26,0.16,0.28-3.93,2.26h0Zm0,3.22-0.16-.28,3.93-2.26,0.16,0.28-3.93,2.26h0Zm0-14.43-0.16-.28,3.93-2.26,0.16,0.28-3.93,2.26h0Zm0,3.22-0.16-.28,3.93-2.26,0.16,0.28-3.93,2.26h0Zm0,3.22-0.16-.28,3.93-2.26,0.16,0.28-3.93,2.26h0Zm0,3.22-0.16-.28,3.93-2.26,0.16,0.28-3.93,2.26h0Zm0,3.22-0.16-.28,3.93-2.26,0.16,0.28-3.93,2.26h0Zm0-11.28-0.16-.28,3.93-2.26,0.16,0.28-3.93,2.26h0Zm0,3.22-0.16-.28,3.93-2.26,0.16,0.28-3.93,2.26h0Zm0,3.22-0.16-.28,3.93-2.26,0.16,0.28-3.93,2.26h0Zm0,3.22-0.16-.28,3.93-2.26,0.16,0.28-3.93,2.26h0Zm0,3.22-0.16-.28,3.93-2.26,0.16,0.28-3.93,2.26h0Zm-5.36-21.58-0.16-.28,3.93-2.26,0.16,0.28-3.93,2.26h0Zm0,3.22-0.16-.28,3.93-2.26,0.16,0.28-3.93,2.26h0Zm0,3.22-0.16-.28,3.93-2.26,0.16,0.28L101.39,201h0Zm0,3.22-0.16-.28,3.93-2.26,0.16,0.28-3.93,2.26h0Zm0,3.22-0.16-.28,3.93-2.26,0.16,0.28-3.93,2.26h0Zm0-11.28-0.16-.28,3.93-2.26,0.16,0.28-3.93,2.26h0Zm0,3.22-0.16-.28,3.93-2.26,0.16,0.28-3.93,2.26h0Zm0,3.22-0.16-.28,3.93-2.26,0.16,0.28-3.93,2.26h0Zm0,3.22-0.16-.28,3.93-2.26,0.16,0.28-3.93,2.26h0Zm0,3.22-0.16-.28,3.93-2.26,0.16,0.28-3.93,2.26h0Zm-0.16-11.2-0.16-.28,3.93-2.26,0.16,0.28-3.93,2.26h0Zm0,3.22-0.16-.28,3.93-2.26,0.16,0.28-3.93,2.26h0Zm0,3.22-0.16-.28,3.93-2.26,0.16,0.28-3.93,2.26h0Zm0,3.22-0.16-.28L105,205l0.16,0.28-3.93,2.26h0Zm0,3.22-0.16-.28,3.93-2.26,0.16,0.28-3.93,2.26h0Zm0-11.28-0.16-.28,3.93-2.26,0.16,0.28-3.93,2.26h0Zm0,3.22-0.16-.28,3.93-2.26,0.16,0.28-3.93,2.26h0Zm0,3.22-0.16-.28,3.93-2.26,0.16,0.28-3.93,2.26h0Zm0,3.22-0.16-.28,3.93-2.26,0.16,0.28-3.93,2.26h0Zm0,3.22-0.16-.28,3.93-2.26,0.16,0.28-3.93,2.26h0Zm0.16-17.73-0.16-.28,3.93-2.26,0.16,0.28-3.93,2.26h0Zm0,3.22-0.16-.28,3.93-2.26,0.16,0.28-3.93,2.26h0Zm0,3.22-0.16-.28,3.93-2.26,0.16,0.28-3.93,2.26h0Zm0,3.22-0.16-.28,3.93-2.26,0.16,0.28-3.93,2.26h0Zm0,3.22-0.16-.28,3.93-2.26,0.16,0.28-3.93,2.26h0Zm0-11.28-0.16-.28,3.93-2.26,0.16,0.28-3.93,2.26h0Zm0,3.22-0.16-.28,3.93-2.26,0.16,0.28-3.93,2.26h0Zm0,3.22-0.16-.28,3.93-2.26,0.16,0.28-3.93,2.26h0Zm0,3.22-0.16-.28,3.93-2.26,0.16,0.28-3.93,2.26h0Zm0,3.22-0.16-.28,3.93-2.26,0.16,0.28-3.93,2.26h0Zm-0.16-11.2-0.16-.28,3.93-2.26,0.16,0.28-3.93,2.26h0Zm0,3.22-0.16-.28,3.93-2.26,0.16,0.28-3.93,2.26h0Zm0,3.22-0.16-.28,3.93-2.26,0.16,0.28-3.93,2.26h0Zm0,3.22-0.16-.28,3.93-2.26,0.16,0.28-3.93,2.26h0Zm0,3.22-0.16-.28,3.93-2.26,0.16,0.28-3.93,2.26h0Zm0-11.28-0.16-.28L105,197l0.16,0.28-3.93,2.26h0Zm0,3.22-0.16-.28,3.93-2.26,0.16,0.28-3.93,2.26h0Zm0,3.22-0.16-.28,3.93-2.26,0.16,0.28L101.24,206h0Zm0,3.22-0.16-.28,3.93-2.26,0.16,0.28-3.93,2.26h0Zm0,3.22-0.16-.28L105,209.9l0.16,0.28-3.93,2.26h0Zm0.16-17.73-0.16-.28,3.93-2.26,0.16,0.28-3.93,2.26h0Zm0,3.22-0.16-.28,3.93-2.26,0.16,0.28-3.93,2.26h0Zm0,3.22-0.16-.28,3.93-2.26,0.16,0.28-3.93,2.26h0Zm0,3.22-0.16-.28,3.93-2.26,0.16,0.28-3.93,2.26h0Zm0,3.22-0.16-.28,3.93-2.26,0.16,0.28-3.93,2.26h0Zm0-11.28-0.16-.28,3.93-2.26,0.16,0.28-3.93,2.26h0Zm0,3.22-0.16-.28,3.93-2.26,0.16,0.28-3.93,2.26h0Zm0,3.22-0.16-.28,3.93-2.26,0.16,0.28-3.93,2.26h0Zm0,3.22-0.16-.28,3.93-2.26,0.16,0.28L101.39,206h0Zm0,3.22-0.16-.28,3.93-2.26,0.16,0.28-3.93,2.26h0ZM101.24,198l-0.16-.28,3.93-2.26,0.16,0.28L101.24,198h0Zm0,3.22-0.16-.28,3.93-2.26,0.16,0.28-3.93,2.26h0Zm0,3.22-0.16-.28,3.93-2.26,0.16,0.28-3.93,2.26h0Zm0,3.22-0.16-.28,3.93-2.26,0.16,0.28-3.93,2.26h0Zm0,3.22-0.16-.28,3.93-2.26,0.16,0.28-3.93,2.26h0Zm0-11.28-0.16-.28,3.93-2.26,0.16,0.28-3.93,2.26h0Zm0,3.22-0.16-.28L105,200.3l0.16,0.28-3.93,2.26h0Zm0,3.22-0.16-.28,3.93-2.26,0.16,0.28-3.93,2.26h0Zm0,3.22-0.16-.28,3.93-2.26,0.16,0.28-3.93,2.26h0Zm0,3.22-0.16-.28L105,210l0.16,0.28-3.93,2.26h0Zm0.16-17.73-0.16-.28,3.93-2.26,0.16,0.28-3.93,2.26h0Zm0,3.22-0.16-.28,3.93-2.26,0.16,0.28L101.39,198h0Zm0,3.22-0.16-.28,3.93-2.26,0.16,0.28-3.93,2.26h0Zm0,3.22-0.16-.28,3.93-2.26,0.16,0.28-3.93,2.26h0Zm0,3.22-0.16-.28,3.93-2.26,0.16,0.28-3.93,2.26h0Zm0-11.28-0.16-.28,3.93-2.26,0.16,0.28-3.93,2.26h0Zm0,3.22-0.16-.28,3.93-2.26,0.16,0.28-3.93,2.26h0Zm0,3.22-0.16-.28,3.93-2.26,0.16,0.28-3.93,2.26h0Zm0,3.22-0.16-.28,3.93-2.26,0.16,0.28-3.93,2.26h0Zm0,3.22-0.16-.28,3.93-2.26,0.16,0.28-3.93,2.26h0Zm-0.16-11.2-0.16-.28,3.93-2.26,0.16,0.28-3.93,2.26h0Zm0,3.22-0.16-.28,3.93-2.26,0.16,0.28-3.93,2.26h0Zm0,3.22-0.16-.28L105,202l0.16,0.28-3.93,2.26h0Zm0,3.22-0.16-.28,3.93-2.26,0.16,0.28-3.93,2.26h0Zm0,3.22-0.16-.28,3.93-2.26,0.16,0.28L101.24,211h0Zm0-11.28-0.16-.28,3.93-2.26,0.16,0.28-3.93,2.26h0Zm0,3.22-0.16-.28,3.93-2.26,0.16,0.28-3.93,2.26h0Zm0,3.22-0.16-.28L105,203.6l0.16,0.28-3.93,2.26h0Zm0,3.22-0.16-.28,3.93-2.26,0.16,0.28-3.93,2.26h0Zm0,3.22-0.16-.28L105,210l0.16,0.28-3.93,2.26h0Z"/><path class="cls-2" d="M171.13,213.67a25.63,25.63,0,0,1-34.39,0,21.84,21.84,0,0,1-6.92-16.44,21.61,21.61,0,0,1,6.92-16.41,25.86,25.86,0,0,1,34.39,0,23,23,0,0,1,0,32.81h0Zm-7.47-26.54a13,13,0,0,0-9.62-4,13.67,13.67,0,0,0-9.65,4,13.37,13.37,0,0,0-4.2,10.19,13.73,13.73,0,0,0,4.13,10.2A13.38,13.38,0,0,0,154,211.5a12.88,12.88,0,0,0,9.62-4.11,14,14,0,0,0,4-10.16,13.84,13.84,0,0,0-4-10.1h0ZM216.1,219.6l-21.73-28.67V219.6h-9.68V175h9.23l21.8,28.8V175h9.62v44.6H216.1Zm41-35.59a22.12,22.12,0,0,0-6.35-1.18,8.18,8.18,0,0,0-4.07.92,3,3,0,0,0-1.63,2.84,3.67,3.67,0,0,0,1.22,2.84,9.9,9.9,0,0,0,3.27,1.88q2.05,0.77,4.55,1.47a55.87,55.87,0,0,1,6.86,2.39,14.67,14.67,0,0,1,5.64,4.11,11.31,11.31,0,0,1,2.31,7.33,12,12,0,0,1-2.31,7.49,14,14,0,0,1-6.28,4.56,24.86,24.86,0,0,1-9,1.53A30.59,30.59,0,0,1,231.55,213l4-8.22a30.22,30.22,0,0,0,8.17,5,20.91,20.91,0,0,0,7.72,1.75,9.21,9.21,0,0,0,4.84-1.12,3.66,3.66,0,0,0,1.83-3.35,3.71,3.71,0,0,0-1.25-2.9,10.3,10.3,0,0,0-3.33-1.88q-2.08-.77-4.65-1.47a54.76,54.76,0,0,1-6.76-2.26,15,15,0,0,1-5.64-3.92q-2.28-2.55-2.28-7.2a11.52,11.52,0,0,1,2.28-7.23,14.24,14.24,0,0,1,6.22-4.52,24,24,0,0,1,8.88-1.56,30.86,30.86,0,0,1,17.05,4.91l-3.91,8.35a37.54,37.54,0,0,0-7.63-3.41h0Zm39.74-.92a13.13,13.13,0,0,0-9.71,4,13.6,13.6,0,0,0-3.94,10,14,14,0,0,0,3.88,10,12.87,12.87,0,0,0,9.78,4.11q6.09,0,11.67-5.29l6,6.44q-8.33,8-18.14,8a22.92,22.92,0,0,1-16.8-6.66,22.25,22.25,0,0,1-6.73-16.47,21.66,21.66,0,0,1,6.86-16.31,23.7,23.7,0,0,1,17.05-6.56,25.22,25.22,0,0,1,17.69,7.45l-5.9,7.2q-5.39-5.86-11.67-5.86h0Zm23.65,36.51V175h10.13v44.6H320.53Zm54.94-8.35v8.35H340.59V175h34.17v8.35h-24V193h21.6v8.35h-21.6v9.88h24.74Zm39.36,8.35L393.1,190.92V219.6h-9.68V175h9.23l21.8,28.8V175h9.62v44.6h-9.23Zm39.94-36.51a13.13,13.13,0,0,0-9.71,4,13.6,13.6,0,0,0-3.94,10A14,14,0,0,0,445,207a12.87,12.87,0,0,0,9.78,4.11q6.09,0,11.67-5.29l6,6.44q-8.33,8-18.14,8a22.92,22.92,0,0,1-16.8-6.66,22.25,22.25,0,0,1-6.73-16.47,21.66,21.66,0,0,1,6.86-16.31,23.7,23.7,0,0,1,17.05-6.56,25.22,25.22,0,0,1,17.69,7.45l-5.9,7.2q-5.39-5.86-11.67-5.86h0Zm58.53,28.16v8.35H478.42V175h34.17v8.35h-24V193h21.6v8.35h-21.6v9.88h24.74Z"/><path class="cls-3" d="M120.08,187.27a13.69,13.69,0,1,0,0,19.65l7.18,7.18a23.85,23.85,0,1,1,0-34l-7.18,7.18h0Z"/><path class="cls-4" d="M96.87,197s0,0.09,0,.13a13.68,13.68,0,0,0,23.21,9.83l7.18,7.18a23.84,23.84,0,0,1-40.56-17c0-.08,0-0.15,0-0.22L96.87,197h0Z"/><path class="cls-5" d="M104.63,184.75A13.69,13.69,0,0,0,96.87,197l-10.16-.11a23.85,23.85,0,0,1,13.71-21.35l4.21,9.25h0Z"/><path class="cls-6" d="M207.54,231.39h-5.1v13.82h2.16V241h2.94a5.11,5.11,0,0,0,3.74-1.3,4.86,4.86,0,0,0,1.33-3.63,4.53,4.53,0,0,0-1.33-3.49A5.28,5.28,0,0,0,207.54,231.39Zm2.19,6.87a3.4,3.4,0,0,1-2.29.69H204.6v-5.47h2.85a3.51,3.51,0,0,1,2.29.66,2.47,2.47,0,0,1,.8,2A2.61,2.61,0,0,1,209.74,238.26Zm18.1-2.15a4.48,4.48,0,0,0-1.35-3.49,5.44,5.44,0,0,0-3.8-1.23h-5.19v13.82h2.16V241q3.35,0,3.62,0l2.34,4.19h2.45l-2.87-4.62A4.43,4.43,0,0,0,227.84,236.11ZM222.68,239h-3v-5.47h3a3.55,3.55,0,0,1,2.29.66,2.46,2.46,0,0,1,.81,2,2.59,2.59,0,0,1-.81,2.09A3.44,3.44,0,0,1,222.68,239Zm10.77,6.26h2.16V231.39h-2.16v13.82Zm12.91-2.59-4-11.24h-2.32l5.1,13.82h2.23l5.18-13.82h-2.25Zm13.81-11.24-5.65,13.82h2.25l1.23-3.12h6.46l1.23,3.12H268l-5.6-13.82h-2.21ZM258.8,240l2.41-6.14,2.41,6.14H258.8Zm10.84-6.54h4v11.73h2.16V233.48h4.06v-2.09H269.64v2.09Zm17,5.83h6.25v-2.07h-6.25v-3.75h7v-2.09h-9.14v13.82h9.36v-2.09h-7.21v-3.81Zm33.14,3.36-3.18-11.28h-2.12l-3.16,11.28-3.16-11.28h-2.32l4.32,13.82h2.21l3.15-10.86,3.09,10.86h2.23l4.33-13.82h-2.23Zm12-3.36h6.25v-2.07H331.8v-3.75h7v-2.09h-9.14v13.82H339v-2.09H331.8v-3.81Zm16.57-7.92-5.65,13.82H345l1.23-3.12h6.46l1.23,3.12h2.3l-5.6-13.82h-2.21ZM347,240l2.41-6.14,2.41,6.14H347Zm15.78-8.63h-2.16v13.82h7.7V243.1h-5.54V231.39Zm8.83,2.09h4v11.73h2.16V233.48h4.06v-2.09H371.61v2.09Zm23.79-2.09v6h-6.78v-6h-2.16v13.82h2.16v-5.73h6.78v5.73h2.16V231.39H395.4Z"/></svg>